<?xml version="1.0" encoding="utf-8"?>
<!-- Generator: Adobe Illustrator 27.2.0, SVG Export Plug-In . SVG Version: 6.00 Build 0)  -->
<svg version="1.1" id="Layer_1" xmlns="http://www.w3.org/2000/svg" xmlns:xlink="http://www.w3.org/1999/xlink" x="0px" y="0px"
	 viewBox="0 0 612 792" style="enable-background:new 0 0 612 792;" xml:space="preserve">
<style type="text/css">
	.st0{fill:#987F7B;}
	.st1{fill:#796662;}
	.st2{fill:#AAB1C1;}
	.st3{fill:#C6525C;}
	.st4{font-family:'AvenirNext-MediumItalic';}
	.st5{font-size:9.5308px;}
	.st6{font-size:13.583px;}
	.st7{font-family:'AvenirNext-DemiBoldItalic';}
	.st8{font-size:22.0229px;}
	.st9{font-size:26.8627px;}
	.st10{fill:#C6525C;stroke:#C6525C;stroke-width:0.5;stroke-miterlimit:10;}
	.st11{fill:#C6525C;stroke:#C6525C;stroke-width:0.75;stroke-miterlimit:10;}
	.st12{fill:#665552;}
	.st13{fill:#D1BFCE;}
	.st14{fill:#323276;}
	.st15{font-family:'Arial-Black';}
	.st16{font-size:16.4529px;}
</style>
<rect x="5.85" y="232.56" class="st0" width="593.8" height="362.33"/>
<rect x="54.56" y="350.46" class="st1" width="69.19" height="69.19"/>
<rect x="176.82" y="401.12" class="st1" width="82.91" height="193.77"/>
<rect x="464.84" y="413.72" class="st1" width="134.08" height="96.88"/>
<rect x="14.45" y="476.12" class="st1" width="149.42" height="80.13"/>
<rect x="343.24" y="401.12" class="st1" width="119.21" height="193.77"/>
<rect x="12.28" y="448.86" class="st2" width="153.76" height="30.04"/>
<rect x="158.66" y="391.05" width="187.57" height="53.03"/>
<rect x="337.62" y="341.27" width="261.3" height="66.45"/>
<rect x="268.38" y="456.68" class="st1" width="66.21" height="96.88"/>
<text transform="matrix(1.0806 0 0 1 165.5685 423.4029)" class="st3 st4 st5">San Francisco</text>
<text transform="matrix(1.0806 0 0 1 365.0163 380.8457)" class="st3 st4 st6">San Francisco</text>
<text transform="matrix(1.0806 0 0 1 231.2661 424.3354)" class="st3 st7 st8">Badlands</text>
<text transform="matrix(1.0806 0 0 1 459.8027 383.5659)" class="st3 st7 st9">Badlands</text>
<line class="st10" x1="165.59" y1="424.73" x2="227.94" y2="424.73"/>
<line class="st11" x1="365.02" y1="383.57" x2="454.97" y2="383.57"/>
<rect x="5.85" y="232.56" class="st2" width="593.06" height="10.97"/>
<rect x="331.55" y="456.68" class="st12" width="2.85" height="96.88"/>
<rect x="300.06" y="425" transform="matrix(-1.836970e-16 1 -1 -1.836970e-16 759.591 156.6256)" class="st12" width="2.85" height="66.21"/>
<rect x="256.68" y="444.08" class="st12" width="2.85" height="150.81"/>
<rect x="216.84" y="404.05" transform="matrix(-1.836970e-16 1 -1 -1.836970e-16 663.7769 227.2378)" class="st12" width="2.85" height="82.91"/>
<rect x="160.83" y="479.48" class="st12" width="2.85" height="76.89"/>
<rect x="87.73" y="405.62" transform="matrix(-1.836970e-16 1 -1 -1.836970e-16 569.4861 391.1696)" class="st12" width="2.85" height="149.42"/>
<rect x="459.41" y="408.24" class="st12" width="2.85" height="186.65"/>
<rect x="402.92" y="351.04" transform="matrix(-1.836970e-16 1 -1 -1.836970e-16 813.4957 4.8051)" class="st12" width="2.85" height="116.21"/>
<rect x="596.48" y="413.72" class="st12" width="2.85" height="96.88"/>
<rect x="530.04" y="348.53" transform="matrix(-1.836970e-16 1 -1 -1.836970e-16 946.6157 -116.315)" class="st12" width="2.85" height="133.25"/>
<path class="st13" d="M439.64,517.92h-83.94c-2.36,0-4.27-1.91-4.27-4.27v-36.8c0-2.36,1.91-4.27,4.27-4.27h83.94
	c2.36,0,4.27,1.91,4.27,4.27v36.8C443.92,516.01,442,517.92,439.64,517.92z"/>
<text transform="matrix(0.6423 0 0 1 354.7498 491.9061)"><tspan x="0" y="0" class="st14 st15 st16">CLOSED</tspan><tspan x="0" y="19.74" class="st14 st15 st16">INDEFINITELY</tspan></text>
</svg>
