<?xml version="1.0" encoding="utf-8"?>
<!-- Generator: Adobe Illustrator 27.2.0, SVG Export Plug-In . SVG Version: 6.00 Build 0)  -->
<svg version="1.1" id="Layer_1" xmlns="http://www.w3.org/2000/svg" xmlns:xlink="http://www.w3.org/1999/xlink" x="0px" y="0px"
	 viewBox="0 0 612 792" style="enable-background:new 0 0 612 792;" xml:space="preserve">
<style type="text/css">
	.st0{fill:#576071;}
	.st1{stroke:#000000;stroke-width:6;stroke-miterlimit:10;}
	.st2{fill:#6C484D;}
	.st3{fill:#7A5358;}
	.st4{fill:#744E54;}
	.st5{fill:#868777;stroke:#000000;stroke-width:6;stroke-miterlimit:10;}
	.st6{fill:#E2E0CC;}
	.st7{fill:#E8E5CD;stroke:#C9C6A8;stroke-width:5;stroke-miterlimit:10;}
	.st8{fill:#C9C6A8;}
	.st9{fill:#C9C6A8;stroke:#C9C6A8;stroke-miterlimit:10;}
	.st10{fill:#8A7E6B;}
	.st11{fill:#8A7E6B;stroke:#736958;stroke-width:5;stroke-miterlimit:10;}
	.st12{fill:#776C5B;}
	.st13{fill:#595954;stroke:#8C857D;stroke-width:5;stroke-miterlimit:10;}
	.st14{fill:none;stroke:#8C857D;stroke-width:2;stroke-miterlimit:10;}
	.st15{fill:#8C857D;stroke:#8C857D;stroke-miterlimit:10;}
	.st16{fill:#CAC9B3;}
	.st17{fill:#A5A492;}
	.st18{fill:#736E66;}
	.st19{fill:#081032;}
	.st20{fill:#FFFFFF;}
	.st21{font-family:'MyriadPro-Regular';}
	.st22{font-size:32.6191px;}
</style>
<rect x="81.12" y="204" class="st0" width="458.32" height="415.82"/>
<rect x="94.59" y="465.21" class="st1" width="65.21" height="151.63"/>
<rect x="81.12" y="194.71" class="st2" width="458.32" height="223.29"/>
<rect x="172.76" y="222.02" class="st3" width="55.78" height="195.98"/>
<rect x="384.15" y="224" class="st3" width="55.78" height="194.19"/>
<rect x="439.92" y="224" class="st4" width="33.72" height="194.19"/>
<rect x="349.99" y="224" class="st4" width="33.72" height="194.19"/>
<rect x="228.41" y="224" class="st4" width="33.72" height="194.19"/>
<rect x="138.7" y="224" class="st4" width="33.72" height="194.19"/>
<rect x="176.53" y="455.15" class="st5" width="48.44" height="84.08"/>
<rect x="224.51" y="455.15" class="st5" width="28.97" height="84.08"/>
<rect x="360.07" y="455.15" class="st5" width="28.97" height="84.08"/>
<rect x="389.04" y="455.15" class="st5" width="28.97" height="84.08"/>
<rect x="418.01" y="455.15" class="st5" width="28.97" height="84.08"/>
<rect x="269" y="491.2" class="st1" width="75.28" height="125.25"/>
<rect x="268.8" y="455.15" class="st5" width="75.48" height="32.44"/>
<rect x="94.59" y="505.53" class="st6" width="65.21" height="114.29"/>
<rect x="97.05" y="467.56" class="st7" width="60.5" height="32.44"/>
<rect x="103.26" y="517.88" class="st8" width="21.32" height="15.03"/>
<rect x="129.44" y="517.88" class="st9" width="21.32" height="15.03"/>
<rect x="103.26" y="536.56" class="st8" width="21.32" height="34.58"/>
<rect x="129.44" y="536.56" class="st8" width="21.32" height="34.58"/>
<rect x="103.26" y="579.29" class="st8" width="21.32" height="34.58"/>
<rect x="129.44" y="579.29" class="st8" width="21.32" height="34.58"/>
<rect x="462.86" y="465.21" class="st1" width="65.21" height="151.84"/>
<rect x="462.86" y="504.69" class="st10" width="65.21" height="115.73"/>
<rect x="465.32" y="466.78" class="st11" width="60.5" height="32.44"/>
<rect x="471.53" y="518.48" class="st12" width="21.32" height="15.03"/>
<rect x="497.71" y="518.48" class="st12" width="21.32" height="15.03"/>
<rect x="471.53" y="537.15" class="st12" width="21.32" height="34.58"/>
<rect x="497.71" y="537.15" class="st12" width="21.32" height="34.58"/>
<rect x="471.53" y="579.89" class="st12" width="21.32" height="34.58"/>
<rect x="497.71" y="579.89" class="st12" width="21.32" height="34.58"/>
<rect x="176.53" y="272.62" class="st13" width="48.44" height="84.08"/>
<path class="st13" d="M258.42,345.93c-8.76,3.09-17.53,6.18-26.29,9.27v-84.08c8.54-2.56,17.08-5.11,25.62-7.67
	C257.97,290.95,258.2,318.44,258.42,345.93z"/>
<path class="st13" d="M169.17,355.44c-9.08-2.36-18.15-4.73-27.23-7.09c0.22-28.38,0.43-56.75,0.65-85.13
	c8.86,2.71,17.72,5.43,26.58,8.14V355.44z"/>
<line class="st14" x1="144.17" y1="309.33" x2="167.95" y2="316.36"/>
<line class="st14" x1="176.53" y1="317.88" x2="224.96" y2="318.21"/>
<line class="st14" x1="255.9" y1="309.33" x2="232.13" y2="316.36"/>
<rect x="387.82" y="271.99" class="st13" width="48.44" height="84.08"/>
<path class="st13" d="M469.71,345.3c-8.76,3.09-17.53,6.18-26.29,9.27V270.5c8.54-2.56,17.08-5.11,25.62-7.67
	C469.26,290.32,469.48,317.81,469.71,345.3z"/>
<path class="st13" d="M380.46,354.81c-9.08-2.36-18.15-4.73-27.23-7.09c0.22-28.38,0.43-56.75,0.65-85.13
	c8.86,2.71,17.72,5.43,26.58,8.14V354.81z"/>
<line class="st14" x1="355.46" y1="308.7" x2="379.23" y2="315.73"/>
<line class="st14" x1="387.82" y1="317.25" x2="436.25" y2="317.58"/>
<line class="st14" x1="467.19" y1="308.7" x2="443.41" y2="315.73"/>
<rect x="81.12" y="235.3" class="st15" width="458.32" height="4.99"/>
<rect x="81.12" y="201.66" class="st15" width="458.32" height="21.03"/>
<path class="st15" d="M539.44,199.7H81.12c-2.66-4.97-5.32-9.95-7.98-14.92c157.84,0.21,315.69,0.43,473.53,0.64
	C544.26,190.18,541.85,194.94,539.44,199.7z"/>
<rect x="113.92" y="199.7" class="st16" width="12.49" height="12.49"/>
<rect x="113.92" y="212.19" class="st17" width="12.49" height="6.88"/>
<rect x="172.33" y="199.7" class="st16" width="12.49" height="12.49"/>
<rect x="172.33" y="212.19" class="st17" width="12.49" height="6.88"/>
<rect x="229.52" y="199.7" class="st16" width="12.49" height="12.49"/>
<rect x="229.52" y="212.19" class="st17" width="12.49" height="6.88"/>
<rect x="283.35" y="199.7" class="st16" width="12.49" height="12.49"/>
<rect x="283.35" y="212.19" class="st17" width="12.49" height="6.88"/>
<rect x="333.5" y="199.7" class="st16" width="12.49" height="12.49"/>
<rect x="333.5" y="212.19" class="st17" width="12.49" height="6.88"/>
<rect x="384.89" y="199.7" class="st16" width="12.49" height="12.49"/>
<rect x="384.89" y="212.19" class="st17" width="12.49" height="6.88"/>
<rect x="436.25" y="199.7" class="st16" width="12.49" height="12.49"/>
<rect x="436.25" y="212.19" class="st17" width="12.49" height="6.88"/>
<rect x="491.62" y="199.7" class="st16" width="12.49" height="12.49"/>
<rect x="491.62" y="212.19" class="st17" width="12.49" height="6.88"/>
<rect x="81.12" y="240.15" class="st18" width="458.32" height="2.49"/>
<rect x="356.8" y="491.2" class="st19" width="93.43" height="51.69"/>
<rect x="356.8" y="491.2" class="st20" width="93.43" height="7.31"/>
<text transform="matrix(0.7817 0 0 1 360.9912 530.209)" class="st20 st21 st22">CLOSED</text>
</svg>
