<?xml version="1.0" encoding="utf-8"?>
<!-- Generator: Adobe Illustrator 27.2.0, SVG Export Plug-In . SVG Version: 6.00 Build 0)  -->
<svg version="1.1" id="Layer_1" xmlns="http://www.w3.org/2000/svg" xmlns:xlink="http://www.w3.org/1999/xlink" x="0px" y="0px"
	 viewBox="0 0 612 792" style="enable-background:new 0 0 612 792;" xml:space="preserve">
<style type="text/css">
	.st0{fill:#945748;}
	.st1{fill:#8A4E41;}
	.st2{fill:#A5ACA3;}
	.st3{fill:#262B2A;stroke:#414042;stroke-width:5;stroke-miterlimit:10;}
	.st4{fill:#151213;stroke:#414042;stroke-width:5;stroke-miterlimit:10;}
	.st5{fill:#151213;}
	.st6{fill:#323031;}
	.st7{fill:#6383AA;stroke:#000000;stroke-width:4;stroke-miterlimit:10;}
	.st8{fill:#3E4240;stroke:#262B2A;stroke-width:4;stroke-miterlimit:10;}
	.st9{fill:#6E4842;}
	.st10{fill:#414340;}
	.st11{fill:#262B2A;}
	.st12{fill:#CBC9B0;}
	.st13{fill:#A5A490;}
	.st14{fill:#FFFFFF;}
	.st15{font-family:'Arial-Black';}
	.st16{font-size:27.2073px;}
	.st17{fill:#3974B7;}
	.st18{font-size:16.1126px;}
	.st19{fill:#414242;}
	.st20{fill:#120A41;}
	.st21{font-family:'MyriadPro-Regular';}
	.st22{font-size:12.652px;}
	.st23{font-size:16.8693px;}
	.st24{fill:none;stroke:#6D6E71;stroke-width:2;stroke-miterlimit:10;}
</style>
<rect x="138.79" y="167.67" class="st0" width="308.38" height="456.55"/>
<rect x="138.79" y="401.57" class="st1" width="308.38" height="222.65"/>
<rect x="180.31" y="224.01" class="st2" width="36.89" height="115.3"/>
<rect x="186.52" y="472.64" class="st3" width="92.47" height="149.06"/>
<rect x="280.98" y="472.62" class="st4" width="163.6" height="98.62"/>
<path class="st5" d="M454.81,451.21c-108.15-0.3-216.3-0.61-324.45-0.91c2.8-17.63,5.59-35.26,8.39-52.89
	c102.13,0.03,204.26,0.05,306.39,0.08C448.36,415.39,451.58,433.3,454.81,451.21z"/>
<rect x="138.79" y="382.55" class="st6" width="308.38" height="17.32"/>
<path class="st5" d="M495.27,397.3"/>
<rect x="288.14" y="224.01" class="st2" width="115.3" height="115.3"/>
<rect x="350.44" y="229.67" class="st7" width="45.56" height="27.66"/>
<rect x="186.29" y="187.72" class="st8" width="26.28" height="17.47"/>
<rect x="282.33" y="338.42" class="st9" width="126.92" height="8.09"/>
<g>
	<rect x="171.65" y="356.66" class="st10" width="12.49" height="12.49"/>
	<rect x="171.65" y="369.15" class="st11" width="12.49" height="6.88"/>
</g>
<rect x="185.3" y="263.4" class="st7" width="27.27" height="70.25"/>
<rect x="185.3" y="229.43" class="st7" width="27.27" height="26.53"/>
<rect x="178.28" y="338.42" class="st9" width="44.68" height="8.09"/>
<rect x="131.06" y="150.78" class="st12" width="328.6" height="18.13"/>
<rect x="320.7" y="168.91" class="st13" width="12.49" height="6.88"/>
<rect x="372.3" y="168.91" class="st13" width="12.49" height="6.88"/>
<rect x="418.1" y="168.91" class="st13" width="12.49" height="6.88"/>
<rect x="269.44" y="168.91" class="st13" width="12.49" height="6.88"/>
<line class="st13" x1="234.82" y1="168.91" x2="247.3" y2="168.91"/>
<rect x="171.08" y="168.91" class="st13" width="12.49" height="6.88"/>
<rect x="218.89" y="168.91" class="st13" width="12.49" height="6.88"/>
<path class="st10" d="M220.72,230.33H176.8c2.33-5.62,4.65-11.24,6.98-16.86c10.27,0.06,20.53,0.12,30.8,0.18
	C216.62,219.21,218.67,224.77,220.72,230.33z"/>
<text transform="matrix(0.9265 0 0 1 234.507 433.6056)" class="st14 st15 st16">earthbar</text>
<rect x="205.91" y="505.46" class="st17" width="53.18" height="76.67"/>
<text transform="matrix(0.5106 0 0 1 212.0251 524.8244)"><tspan x="0" y="0" class="st14 st15 st18">LEASE</tspan><tspan x="0" y="19.33" class="st14 st15 st18">NOW!</tspan></text>
<rect x="294.94" y="264.14" class="st7" width="45.97" height="69.51"/>
<rect x="294.94" y="229.67" class="st7" width="45.97" height="27.66"/>
<path class="st19" d="M409.03,232.44c-42.47,0-84.94,0-127.4,0c3.69-5.34,7.38-10.68,11.07-16.03c35.89-0.22,71.77-0.44,107.66-0.66
	C403.24,221.32,406.14,226.88,409.03,232.44z"/>
<rect x="350.03" y="264.14" class="st7" width="45.97" height="69.51"/>
<rect x="294.94" y="187.72" class="st8" width="150.45" height="17.47"/>
<rect x="258.76" y="356.66" class="st10" width="12.49" height="12.49"/>
<rect x="258.76" y="369.15" class="st11" width="12.49" height="6.88"/>
<g>
	<rect x="334.92" y="356.66" class="st10" width="12.49" height="12.49"/>
	<rect x="334.92" y="369.15" class="st11" width="12.49" height="6.88"/>
</g>
<g>
	<rect x="409.03" y="356.66" class="st10" width="12.49" height="12.49"/>
	<rect x="409.03" y="369.15" class="st11" width="12.49" height="6.88"/>
</g>
<rect x="275.65" y="573.8" class="st5" width="171.53" height="50.42"/>
<text transform="matrix(0.5595 0 0 1 209.9695 569.9611)"><tspan x="0" y="0" class="st20 st21 st22">(415) 125-5249</tspan><tspan x="78.66" y="0" class="st20 st15 st23"> </tspan></text>
<line class="st24" x1="273.73" y1="537.59" x2="263.15" y2="537.56"/>
<line class="st24" x1="263.85" y1="556.82" x2="263.85" y2="536.57"/>
<line class="st24" x1="273.73" y1="555.85" x2="263.15" y2="555.81"/>
</svg>
