<?xml version="1.0" encoding="utf-8"?>
<!-- Generator: Adobe Illustrator 27.2.0, SVG Export Plug-In . SVG Version: 6.00 Build 0)  -->
<svg version="1.1" xmlns="http://www.w3.org/2000/svg" xmlns:xlink="http://www.w3.org/1999/xlink" x="0px" y="0px"
	 viewBox="0 0 612 792" style="enable-background:new 0 0 612 792;" xml:space="preserve">
<style type="text/css">
	.st0{fill:#B1ADC2;}
	.st1{fill:#412E1E;}
	.st2{fill:#25000F;}
	.st3{fill:#57412F;}
	.st4{fill:#C7CBDF;}
	.st5{fill:#323D51;}
	.st6{fill:#0C1627;}
	.st7{fill:#2D3960;}
	.st8{fill:#A56C28;}
	.st9{fill:#000034;stroke:#FFFFFF;stroke-miterlimit:10;}
	.st10{fill:#2B1B10;}
	.st11{fill:#333334;}
	.st12{fill:#FFFFFF;}
	.st13{fill:#F0B357;}
	.st14{fill:#000034;stroke:#FFFBD4;stroke-width:2;stroke-miterlimit:10;}
	.st15{fill:none;stroke:#FFFBD4;stroke-width:0.5;stroke-miterlimit:10;}
	.st16{display:none;}
	.st17{display:inline;fill:#7E7A71;}
	.st18{display:inline;fill:none;stroke:#7E7A71;stroke-miterlimit:10;}
	.st19{font-family:'AvenirNext-DemiBold';}
	.st20{font-size:12px;}
</style>
<g id="Layer_3">
	<path class="st0" d="M473.95,597.82H116.1c-0.02-154.41-0.03-308.82-0.05-463.23c4.77,0.77,11.98,1.54,20.74,0.87
		c5.93-0.45,5.75-1.04,12.39-1.71c14.68-1.48,28.29-0.09,28.29-0.09c4.16,0.43,8.37-0.27,12.55-0.25c2.11,0.01,4.6,0.06,6.2-1.64
		c1.55-1.64,0.7-3.22,2.01-4.63c1.95-2.1,5.63-0.58,11.05-0.26c4.91,0.29,7.63-0.62,10.72-1.03c16.44-2.17,61,1.54,61,1.54
		c48.25,4.02,53.44-4.91,100.32,0.78c9.02,1.09,14.75,2.14,26.99,3.13c15.91,1.28,24.71,1,52.03,2.37
		c5.78,0.29,10.52,0.56,13.61,0.74C473.95,288.88,473.95,443.35,473.95,597.82z"/>
	<path class="st1" d="M209.31,165.42h167.63c4.1-3.05,8.2-6.1,12.3-9.15c-63.36,0.05-126.71,0.09-190.07,0.14
		C202.55,159.42,205.93,162.42,209.31,165.42z"/>
	<path class="st2" d="M196.4,158.2h195.41c2.4-2.46,4.79-4.91,7.19-7.37c-69.03,0.06-138.06,0.12-207.09,0.18
		C193.41,153.4,194.91,155.8,196.4,158.2z"/>
	<path class="st3" d="M402.85,153.1"/>
	<path class="st1" d="M208.47,118.82"/>
</g>
<g id="Layer_2">
	<path class="st4" d="M267.83,432.01H143.29c0.02-77.39,0.04-154.78,0.05-232.18c17.47-6.6,30.53-14.16,39.55-20.16
		c11.29-7.51,17.12-13.13,26.53-12.7c8.09,0.36,12.34,4.9,24.33,13.21c7.59,5.25,18.58,12.23,32.93,19.22
		C267.07,276.94,267.45,354.48,267.83,432.01z"/>
	<path class="st4" d="M442.43,432.01H320.89c-0.38-77.39-0.76-154.78-1.15-232.18c16.38-5.26,28.22-12.22,36.15-17.77
		c12.77-8.93,16.85-15.21,26.02-15.49c9.13-0.28,13.89,5.65,27.94,15.08c7.92,5.32,19.37,12.13,34.43,18.3
		C443.67,277.31,443.05,354.66,442.43,432.01z"/>
</g>
<g id="Layer_1">
	<rect x="117.95" y="452.25" class="st5" width="356" height="145.65"/>
	<rect x="116.17" y="432.01" class="st6" width="89.46" height="166.49"/>
	<rect x="205.56" y="453.18" class="st7" width="268.39" height="35.25"/>
	<rect x="205.56" y="488.43" class="st8" width="268.39" height="8.6"/>
	<rect x="205.56" y="432.34" class="st7" width="268.39" height="26.51"/>
	<g>
		<rect x="212.49" y="440.08" class="st9" width="15.08" height="26.58"/>
		<rect x="229.29" y="440.08" class="st9" width="15.08" height="26.58"/>
		<rect x="246.17" y="440.08" class="st9" width="15.08" height="26.58"/>
		<rect x="262.94" y="440.08" class="st9" width="15.08" height="26.58"/>
		<rect x="279.58" y="440.08" class="st9" width="15.08" height="26.58"/>
		<rect x="296.21" y="440.08" class="st9" width="15.08" height="26.58"/>
		<rect x="312.92" y="440.08" class="st9" width="15.08" height="26.58"/>
		<rect x="329.67" y="440.08" class="st9" width="15.08" height="26.58"/>
		<rect x="346.37" y="440.08" class="st9" width="15.08" height="26.58"/>
		<rect x="362.9" y="440.08" class="st9" width="15.08" height="26.58"/>
		<rect x="379.44" y="440.08" class="st9" width="15.08" height="26.58"/>
		<rect x="396.14" y="440.08" class="st9" width="15.08" height="26.58"/>
		<rect x="412.79" y="440.08" class="st9" width="15.08" height="26.58"/>
		<rect x="429.43" y="440.08" class="st9" width="15.08" height="26.58"/>
		<rect x="446.11" y="440.08" class="st9" width="15.08" height="26.58"/>
	</g>
	<rect x="144.17" y="322.32" class="st10" width="124.54" height="80.92"/>
	<rect x="131.56" y="181.08" transform="matrix(0.866 -0.5 0.5 0.866 -69.3695 110.821)" class="st2" width="81.11" height="7.55"/>
	
		<rect x="198.21" y="180.37" transform="matrix(-0.866 -0.5 0.5 -0.866 352.3116 462.6251)" class="st2" width="79.86" height="7.49"/>
	
		<rect x="307.98" y="181.16" transform="matrix(0.866 -0.5 0.5 0.866 -45.9777 199.2541)" class="st2" width="81.69" height="8.52"/>
	
		<rect x="374.74" y="180.69" transform="matrix(-0.866 -0.5 0.5 -0.866 682.769 552.2308)" class="st2" width="81.27" height="7.9"/>
	
		<rect x="137.82" y="303.55" transform="matrix(-1 -1.224647e-16 1.224647e-16 -1 411.3871 613.2587)" class="st1" width="135.75" height="6.16"/>
	
		<rect x="314.14" y="303.55" transform="matrix(-1 -1.224647e-16 1.224647e-16 -1 764.0263 613.2587)" class="st1" width="135.75" height="6.16"/>
	<g>
		<rect x="124.19" y="458.85" class="st11" width="73.42" height="105.85"/>
		<g>
			<g>
				<path class="st12" d="M134.9,470.25c-0.15-0.51-0.29-0.96-0.53-1.36c-0.32-0.63-0.58-0.77-1.53-0.77h-1.82
					c-0.49,0-0.54,0.05-0.54,0.59v4.25h2.11c1.22,0,1.31-0.22,1.56-1.51h0.51v3.84h-0.53c-0.22-1.29-0.34-1.58-1.55-1.58h-2.11v3.29
					c0,1.6,0.17,1.67,1.72,1.82v0.51h-4.73v-0.51c1.38-0.11,1.53-0.24,1.53-1.82v-7.28c0-1.6-0.17-1.67-1.53-1.82v-0.51h5.39
					c1.53,0,2.11-0.02,2.4-0.04c0.02,0.66,0.08,1.95,0.17,2.83L134.9,470.25z"/>
				<path class="st12" d="M140.52,471.04c2.12,0,3.71,1.75,3.71,4.12c0,2.98-2.04,4.39-3.71,4.39c-2.35,0-3.77-2.04-3.77-4.1
					C136.75,472.45,138.91,471.04,140.52,471.04z M140.32,471.66c-1.04,0-1.97,1.08-1.97,3.22c0,2.33,0.95,4.03,2.35,4.03
					c1.05,0,1.94-0.83,1.94-3.35C142.63,473.41,141.82,471.66,140.32,471.66z"/>
				<path class="st12" d="M149.42,479.33h-3.91v-0.51c1.07-0.11,1.17-0.2,1.17-1.4v-3.82c0-1.21-0.07-1.27-1.05-1.4v-0.46
					c0.83-0.15,1.6-0.37,2.4-0.75c0,0.61,0,1.42,0,2.02c0.59-0.96,1.31-1.97,2.16-1.97c0.63,0,0.99,0.42,0.99,0.88
					c0,0.42-0.27,0.83-0.58,1.01c-0.17,0.11-0.31,0.09-0.44-0.04c-0.26-0.28-0.46-0.46-0.77-0.46c-0.36,0-0.99,0.57-1.36,1.51v3.46
					c0,1.21,0.08,1.31,1.39,1.42V479.33z"/>
				<path class="st12" d="M164.66,476.28c-0.1,0.57-0.61,2.48-0.78,3.05h-7.9v-0.51c1.55-0.17,1.68-0.26,1.68-1.82v-7.3
					c0-1.56-0.17-1.65-1.53-1.8v-0.51h4.56v0.51c-1.36,0.15-1.55,0.22-1.55,1.8v7.48c0,1.12,0.14,1.38,1.1,1.4
					c0.02,0,1.24,0.02,1.34,0.02c0.87,0,1.12-0.11,1.51-0.57c0.42-0.48,0.78-1.21,1.04-1.89L164.66,476.28z"/>
				<path class="st12" d="M171.89,477.77c-1.09,1.47-2.28,1.78-2.82,1.78c-2.07,0-3.33-1.84-3.33-3.95c0-1.25,0.41-2.41,1.1-3.22
					c0.71-0.86,1.65-1.34,2.53-1.34c1.48,0,2.6,1.38,2.6,2.85c-0.02,0.37-0.07,0.53-0.34,0.61c-0.34,0.07-2.52,0.24-4.54,0.31
					c-0.05,2.46,1.34,3.48,2.55,3.48c0.7,0,1.34-0.31,1.97-0.94L171.89,477.77z M168.96,471.73c-0.78,0-1.55,0.79-1.78,2.28
					c0.95,0,1.9,0,2.91-0.06c0.31,0,0.41-0.09,0.41-0.37C170.51,472.62,169.91,471.73,168.96,471.73z"/>
				<path class="st12" d="M178.52,479.55c-0.26,0-0.63-0.15-0.8-0.35c-0.22-0.24-0.32-0.5-0.41-0.83c-0.68,0.5-1.51,1.18-2.04,1.18
					c-1.21,0-2.07-1.08-2.07-2.26c0-0.9,0.46-1.49,1.39-1.84c1.04-0.39,2.31-0.86,2.69-1.2v-0.37c0-1.31-0.61-2.06-1.5-2.06
					c-0.39,0-0.63,0.2-0.8,0.42c-0.19,0.26-0.31,0.66-0.46,1.2c-0.08,0.29-0.24,0.42-0.49,0.42c-0.32,0-0.75-0.37-0.75-0.81
					c0-0.26,0.22-0.48,0.56-0.74c0.49-0.39,1.48-1.07,2.45-1.29c0.51,0,1.04,0.17,1.43,0.5c0.6,0.55,0.87,1.18,0.87,2.13v3.55
					c0,0.85,0.29,1.1,0.59,1.1c0.2,0,0.43-0.09,0.61-0.2l0.17,0.52L178.52,479.55z M177.27,474.9c-0.37,0.2-1.19,0.59-1.58,0.77
					c-0.65,0.31-1.04,0.66-1.04,1.34c0,0.97,0.68,1.42,1.22,1.42c0.44,0,1.05-0.29,1.39-0.66
					C177.27,476.9,177.27,475.76,177.27,474.9z"/>
				<path class="st12" d="M185.18,473.44c-0.31-1.07-0.75-1.8-1.78-1.8c-0.6,0-1.05,0.46-1.05,1.2c0,0.79,0.49,1.16,1.44,1.64
					c1.46,0.75,2.19,1.31,2.19,2.52c0,1.69-1.43,2.56-2.77,2.56c-0.88,0-1.67-0.29-2.02-0.51c-0.08-0.53-0.24-1.54-0.31-2.15
					l0.49-0.09c0.31,1.18,0.9,2.13,2.09,2.13c0.65,0,1.19-0.48,1.19-1.25c0-0.83-0.46-1.25-1.36-1.73
					c-1.19-0.63-2.16-1.21-2.16-2.54c0-1.34,1.05-2.37,2.65-2.37c0.71,0,1.29,0.18,1.63,0.24c0.05,0.44,0.17,1.6,0.25,2.04
					L185.18,473.44z"/>
				<path class="st12" d="M193.39,477.77c-1.09,1.47-2.28,1.78-2.82,1.78c-2.07,0-3.33-1.84-3.33-3.95c0-1.25,0.41-2.41,1.1-3.22
					c0.71-0.86,1.65-1.34,2.53-1.34c1.48,0,2.6,1.38,2.6,2.85c-0.02,0.37-0.07,0.53-0.34,0.61c-0.34,0.07-2.52,0.24-4.54,0.31
					c-0.05,2.46,1.34,3.48,2.55,3.48c0.7,0,1.34-0.31,1.97-0.94L193.39,477.77z M190.46,471.73c-0.78,0-1.55,0.79-1.78,2.28
					c0.95,0,1.9,0,2.91-0.06c0.31,0,0.41-0.09,0.41-0.37C192.01,472.62,191.42,471.73,190.46,471.73z"/>
			</g>
		</g>
		<g>
			<g>
				<path class="st12" d="M132.91,495.1c-0.11,0.41-0.31,1.02-0.43,1.29c-0.23,0.05-0.84,0.2-1.44,0.2c-1.88,0-2.84-1.35-2.84-2.84
					c0-1.74,1.22-2.94,2.98-2.94c0.68,0,1.23,0.15,1.49,0.2c0.03,0.38,0.09,0.89,0.15,1.32l-0.24,0.06
					c-0.16-0.57-0.35-0.92-0.75-1.1c-0.2-0.1-0.53-0.16-0.83-0.16c-1.3,0-1.98,1.04-1.98,2.44c0,1.64,0.79,2.7,2.06,2.7
					c0.8,0,1.2-0.4,1.6-1.25L132.91,495.1z"/>
				<path class="st12" d="M136.07,496.57c-0.12,0-0.29-0.07-0.37-0.16c-0.1-0.11-0.15-0.23-0.19-0.38c-0.31,0.23-0.7,0.54-0.94,0.54
					c-0.56,0-0.96-0.5-0.96-1.05c0-0.42,0.21-0.69,0.65-0.85c0.48-0.18,1.07-0.4,1.24-0.55v-0.17c0-0.6-0.28-0.95-0.69-0.95
					c-0.18,0-0.29,0.09-0.37,0.2c-0.09,0.12-0.14,0.31-0.21,0.55c-0.04,0.14-0.11,0.2-0.23,0.2c-0.15,0-0.35-0.17-0.35-0.38
					c0-0.12,0.1-0.22,0.26-0.34c0.23-0.18,0.69-0.49,1.13-0.6c0.24,0,0.48,0.08,0.66,0.23c0.28,0.26,0.4,0.54,0.4,0.99v1.64
					c0,0.39,0.13,0.51,0.28,0.51c0.09,0,0.2-0.04,0.28-0.09l0.08,0.24L136.07,496.57z M135.5,494.41c-0.17,0.09-0.55,0.27-0.73,0.36
					c-0.3,0.14-0.48,0.31-0.48,0.62c0,0.45,0.31,0.66,0.57,0.66c0.2,0,0.49-0.14,0.65-0.31C135.5,495.34,135.5,494.81,135.5,494.41z
					"/>
				<path class="st12" d="M136.98,496.46v-0.24c0.5-0.05,0.57-0.09,0.57-0.66v-4.08c0-0.52-0.04-0.57-0.54-0.64v-0.22
					c0.42-0.05,0.91-0.19,1.17-0.29c0,0.4,0,0.81,0,1.21v4.02c0,0.56,0.05,0.6,0.56,0.66v0.24H136.98z"/>
				<path class="st12" d="M139.06,496.46v-0.24c0.5-0.05,0.57-0.09,0.57-0.66v-4.08c0-0.52-0.04-0.57-0.54-0.64v-0.22
					c0.42-0.05,0.91-0.19,1.17-0.29c0,0.4,0,0.81,0,1.21v4.02c0,0.56,0.05,0.6,0.56,0.66v0.24H139.06z"/>
				<path class="st12" d="M145.73,494.92v0.65c0,0.56,0.03,0.6,0.59,0.66v0.24h-1.84v-0.24c0.59-0.06,0.63-0.11,0.63-0.67v-0.64
					h-2.08v-0.25c0.75-1.15,1.56-2.39,2.35-3.58h0.35v3.42h0.77v0.41H145.73z M145.11,491.98c-0.5,0.78-1.05,1.65-1.59,2.53h1.59
					V491.98z"/>
				<path class="st12" d="M148.64,491.06c1.18,0,1.62,1.43,1.62,2.75c0,1.24-0.44,2.76-1.62,2.76c-1.21,0-1.65-1.41-1.65-2.75
					C146.99,492.57,147.44,491.06,148.64,491.06z M148.64,491.36c-0.73,0-0.91,1.25-0.91,2.44s0.22,2.47,0.91,2.47
					c0.71,0,0.9-1.27,0.9-2.46C149.54,492.61,149.34,491.36,148.64,491.36z"/>
				<path class="st12" d="M153.79,491.16l0.05,0.07l-0.2,0.56h-1.81c-0.07,0.47-0.17,1.13-0.24,1.55c0.3-0.12,0.73-0.25,0.93-0.25
					c0.97,0,1.48,0.74,1.48,1.45c0,0.51-0.2,1-0.68,1.43c-0.43,0.38-0.98,0.6-1.39,0.6c-0.37,0-0.66-0.16-0.82-0.33
					c-0.11-0.11-0.14-0.18-0.13-0.29c0-0.08,0.06-0.2,0.17-0.29c0.07-0.05,0.14-0.07,0.22,0c0.23,0.22,0.5,0.47,0.99,0.47
					c0.66,0,0.98-0.61,0.98-1.25c0-0.75-0.42-1.29-1.29-1.29c-0.32,0-0.58,0.08-0.79,0.15l-0.02-0.03c0.12-0.66,0.29-1.86,0.38-2.55
					H153.79z"/>
				<path class="st12" d="M156.62,494.8h-1.81l0.06-0.52h1.81L156.62,494.8z"/>
				<path class="st12" d="M159.81,494l-0.53,0.29c-0.17,0.09-0.32,0.13-0.47,0.13c-0.84,0-1.42-0.7-1.42-1.59
					c0-0.83,0.6-1.76,1.61-1.76c1.02,0,1.58,0.97,1.58,2.13c0,1.57-0.91,2.73-1.99,3.18c-0.32,0.14-0.73,0.2-0.94,0.22l-0.06-0.25
					C158.72,496.12,159.56,495.32,159.81,494z M158.92,491.36c-0.61,0-0.83,0.63-0.83,1.23c0,0.75,0.39,1.37,1.05,1.37
					c0.28,0,0.54-0.11,0.71-0.25c0.02-0.19,0.03-0.39,0.03-0.55C159.88,492.39,159.68,491.36,158.92,491.36z"/>
				<path class="st12" d="M163.67,494l-0.53,0.29c-0.17,0.09-0.32,0.13-0.47,0.13c-0.84,0-1.42-0.7-1.42-1.59
					c0-0.83,0.6-1.76,1.61-1.76c1.02,0,1.58,0.97,1.58,2.13c0,1.57-0.91,2.73-1.99,3.18c-0.32,0.14-0.73,0.2-0.94,0.22l-0.06-0.25
					C162.57,496.12,163.41,495.32,163.67,494z M162.77,491.36c-0.61,0-0.83,0.63-0.83,1.23c0,0.75,0.39,1.37,1.05,1.37
					c0.28,0,0.54-0.11,0.71-0.25c0.02-0.19,0.03-0.39,0.03-0.55C163.73,492.39,163.53,491.36,162.77,491.36z"/>
				<path class="st12" d="M165.51,496.46v-0.24c0.87-0.06,0.92-0.1,0.92-0.74v-3.27c0-0.43-0.06-0.45-0.4-0.49l-0.39-0.04v-0.21
					c0.52-0.09,1.04-0.23,1.44-0.42v4.43c0,0.65,0.05,0.68,0.93,0.74v0.24H165.51z"/>
				<path class="st12" d="M170.84,494.8h-1.81l0.06-0.52h1.81L170.84,494.8z"/>
				<path class="st12" d="M173.24,491.06c1.18,0,1.62,1.43,1.62,2.75c0,1.24-0.44,2.76-1.62,2.76c-1.21,0-1.65-1.41-1.65-2.75
					C171.59,492.57,172.04,491.06,173.24,491.06z M173.24,491.36c-0.73,0-0.91,1.25-0.91,2.44s0.22,2.47,0.91,2.47
					c0.71,0,0.9-1.27,0.9-2.46C174.13,492.61,173.94,491.36,173.24,491.36z"/>
				<path class="st12" d="M177.14,491.06c0.76,0,1.28,0.57,1.28,1.26c0,0.26-0.07,0.5-0.22,0.69c-0.07,0.08-0.31,0.27-0.65,0.54
					c0.54,0.32,1.08,0.73,1.08,1.47c0,1-0.83,1.54-1.58,1.54c-0.87,0-1.52-0.54-1.52-1.41c0-0.43,0.17-0.67,0.36-0.84
					c0.13-0.12,0.43-0.34,0.71-0.53c-0.51-0.32-0.87-0.73-0.87-1.34C175.72,491.71,176.28,491.06,177.14,491.06z M177.14,496.28
					c0.53,0,0.85-0.37,0.85-1c0-0.68-0.53-1.01-1.17-1.34c-0.42,0.26-0.66,0.66-0.66,1.17
					C176.17,495.89,176.62,496.28,177.14,496.28z M177.04,491.34c-0.47,0-0.72,0.4-0.72,0.88c0,0.62,0.39,0.85,1,1.2
					c0.31-0.26,0.52-0.55,0.52-1.06C177.84,491.65,177.45,491.34,177.04,491.34z"/>
				<path class="st12" d="M181.74,494l-0.53,0.29c-0.17,0.09-0.32,0.13-0.47,0.13c-0.84,0-1.42-0.7-1.42-1.59
					c0-0.83,0.6-1.76,1.61-1.76c1.02,0,1.58,0.97,1.58,2.13c0,1.57-0.91,2.73-1.99,3.18c-0.32,0.14-0.73,0.2-0.94,0.22l-0.06-0.25
					C180.65,496.12,181.48,495.32,181.74,494z M180.84,491.36c-0.61,0-0.83,0.63-0.83,1.23c0,0.75,0.39,1.37,1.05,1.37
					c0.28,0,0.54-0.11,0.71-0.25c0.02-0.19,0.03-0.39,0.03-0.55C181.8,492.39,181.61,491.36,180.84,491.36z"/>
				<path class="st12" d="M183.58,496.46v-0.24c0.87-0.06,0.92-0.1,0.92-0.74v-3.27c0-0.43-0.06-0.45-0.4-0.49l-0.39-0.04v-0.21
					c0.52-0.09,1.04-0.23,1.44-0.42v4.43c0,0.65,0.05,0.68,0.93,0.74v0.24H183.58z"/>
			</g>
		</g>
		<rect x="127.83" y="531.29" class="st13" width="48.02" height="0.45"/>
	</g>
	<rect x="151.72" y="351.13" class="st14" width="23.06" height="44.87"/>
	<rect x="182.06" y="351.13" class="st14" width="48.76" height="44.87"/>
	<rect x="238.34" y="351.13" class="st14" width="23.06" height="44.87"/>
	<rect x="151.46" y="327.54" class="st14" width="23.06" height="17.21"/>
	<rect x="182.06" y="327.54" class="st14" width="48.76" height="17.21"/>
	<rect x="238.34" y="327.54" class="st14" width="23.06" height="17.21"/>
	<line class="st15" x1="162.29" y1="328.14" x2="162.29" y2="344.75"/>
	<line class="st15" x1="202.82" y1="327.84" x2="202.82" y2="344.45"/>
	<line class="st15" x1="230.48" y1="354.09" x2="230.48" y2="370.7"/>
	<line class="st15" x1="192.6" y1="327.13" x2="192.6" y2="343.74"/>
	<line class="st15" x1="221.46" y1="327.84" x2="221.46" y2="344.45"/>
	<line class="st15" x1="212.28" y1="328.14" x2="212.28" y2="344.75"/>
	<line class="st15" x1="249.87" y1="326.85" x2="249.87" y2="343.46"/>
	<line class="st15" x1="175.16" y1="336.15" x2="151.34" y2="336.15"/>
	<line class="st15" x1="230.25" y1="336.15" x2="182.62" y2="336.15"/>
	<line class="st15" x1="261.78" y1="336.15" x2="237.96" y2="336.15"/>
	<rect x="319.75" y="321.87" class="st10" width="124.54" height="80.92"/>
	<rect x="327.29" y="350.68" class="st14" width="23.06" height="44.87"/>
	<rect x="357.63" y="350.68" class="st14" width="48.76" height="44.87"/>
	<rect x="413.91" y="350.68" class="st14" width="23.06" height="44.87"/>
	<rect x="327.04" y="327.09" class="st14" width="23.06" height="17.21"/>
	<rect x="357.63" y="327.09" class="st14" width="48.76" height="17.21"/>
	<rect x="413.91" y="327.09" class="st14" width="23.06" height="17.21"/>
	<line class="st15" x1="337.86" y1="327.69" x2="337.86" y2="344.3"/>
	<line class="st15" x1="378.39" y1="327.39" x2="378.39" y2="344"/>
	<line class="st15" x1="406.05" y1="353.64" x2="406.05" y2="370.25"/>
	<line class="st15" x1="368.17" y1="326.68" x2="368.17" y2="343.29"/>
	<line class="st15" x1="397.04" y1="327.39" x2="397.04" y2="344"/>
	<line class="st15" x1="387.86" y1="327.69" x2="387.86" y2="344.3"/>
	<line class="st15" x1="425.44" y1="326.4" x2="425.44" y2="343.01"/>
	<line class="st15" x1="350.73" y1="335.7" x2="326.91" y2="335.7"/>
	<line class="st15" x1="405.82" y1="335.7" x2="358.19" y2="335.7"/>
	<line class="st15" x1="437.35" y1="335.7" x2="413.53" y2="335.7"/>
	<rect x="143.29" y="203.26" class="st10" width="124.54" height="80.92"/>
	<rect x="150.84" y="232.08" class="st14" width="23.06" height="44.87"/>
	<rect x="181.18" y="232.08" class="st14" width="48.76" height="44.87"/>
	<rect x="237.46" y="232.08" class="st14" width="23.06" height="44.87"/>
	<rect x="150.58" y="208.49" class="st14" width="23.06" height="17.21"/>
	<rect x="181.18" y="208.49" class="st14" width="48.76" height="17.21"/>
	<rect x="237.46" y="208.49" class="st14" width="23.06" height="17.21"/>
	<line class="st15" x1="161.41" y1="209.08" x2="161.41" y2="225.7"/>
	<line class="st15" x1="201.94" y1="208.79" x2="201.94" y2="225.4"/>
	<line class="st15" x1="229.6" y1="235.04" x2="229.6" y2="251.65"/>
	<line class="st15" x1="191.72" y1="208.08" x2="191.72" y2="224.69"/>
	<line class="st15" x1="220.59" y1="208.79" x2="220.59" y2="225.4"/>
	<line class="st15" x1="211.4" y1="209.08" x2="211.4" y2="225.7"/>
	<line class="st15" x1="248.99" y1="207.8" x2="248.99" y2="224.41"/>
	<line class="st15" x1="174.28" y1="217.09" x2="150.46" y2="217.09"/>
	<line class="st15" x1="229.37" y1="217.09" x2="181.74" y2="217.09"/>
	<line class="st15" x1="260.9" y1="217.09" x2="237.08" y2="217.09"/>
	<rect x="319.75" y="202.88" class="st10" width="124.54" height="80.92"/>
	<rect x="327.29" y="231.7" class="st14" width="23.06" height="44.87"/>
	<rect x="357.63" y="231.7" class="st14" width="48.76" height="44.87"/>
	<rect x="413.91" y="231.7" class="st14" width="23.06" height="44.87"/>
	<rect x="327.04" y="208.11" class="st14" width="23.06" height="17.21"/>
	<rect x="357.63" y="208.11" class="st14" width="48.76" height="17.21"/>
	<rect x="413.91" y="208.11" class="st14" width="23.06" height="17.21"/>
	<line class="st15" x1="337.86" y1="208.7" x2="337.86" y2="225.32"/>
	<line class="st15" x1="378.39" y1="208.41" x2="378.39" y2="225.02"/>
	<line class="st15" x1="406.05" y1="234.66" x2="406.05" y2="251.27"/>
	<line class="st15" x1="368.17" y1="207.7" x2="368.17" y2="224.31"/>
	<line class="st15" x1="397.04" y1="208.41" x2="397.04" y2="225.02"/>
	<line class="st15" x1="387.86" y1="208.7" x2="387.86" y2="225.32"/>
	<line class="st15" x1="425.44" y1="207.42" x2="425.44" y2="224.03"/>
	<line class="st15" x1="350.73" y1="216.71" x2="326.91" y2="216.71"/>
	<line class="st15" x1="405.82" y1="216.71" x2="358.19" y2="216.71"/>
	<line class="st15" x1="437.35" y1="216.71" x2="413.53" y2="216.71"/>
	
		<rect x="314.71" y="277.43" transform="matrix(-1 -1.224647e-16 1.224647e-16 -1 765.1627 561.0129)" class="st1" width="135.75" height="6.16"/>
	
		<rect x="137.68" y="278.02" transform="matrix(-1 -1.224647e-16 1.224647e-16 -1 411.1091 562.201)" class="st1" width="135.75" height="6.16"/>
	
		<rect x="313.87" y="396.49" transform="matrix(-1 -1.224647e-16 1.224647e-16 -1 763.4838 799.1329)" class="st1" width="135.75" height="6.16"/>
	
		<rect x="136.84" y="397.08" transform="matrix(-1 -1.224647e-16 1.224647e-16 -1 409.4304 800.321)" class="st1" width="135.75" height="6.16"/>
	<g class="st16">
		<rect x="116.1" y="482.79" class="st17" width="1.86" height="116.03"/>
		<rect x="203.7" y="482.79" class="st17" width="1.86" height="116.03"/>
		
			<rect x="159.9" y="438.06" transform="matrix(-1.836970e-16 1 -1 -1.836970e-16 643.6223 321.9575)" class="st17" width="1.86" height="89.46"/>
		<rect x="159.97" y="483.79" class="st17" width="1.86" height="115.04"/>
		<ellipse class="st18" cx="160.83" cy="543.37" rx="43.12" ry="28.69"/>
		<ellipse class="st18" cx="160.9" cy="544.07" rx="26.16" ry="17.4"/>
		<line class="st18" x1="171.58" y1="515.58" x2="169.93" y2="527.73"/>
		<line class="st18" x1="203.82" y1="544.16" x2="187.06" y2="544.07"/>
		<line class="st18" x1="134.73" y1="542.58" x2="117.97" y2="542.48"/>
		<line class="st18" x1="190.53" y1="522.75" x2="181.85" y2="533.68"/>
		<line class="st18" x1="183.44" y1="518.72" x2="177.67" y2="530.71"/>
		<line class="st18" x1="188.59" y1="521.13" x2="180.62" y2="532.62"/>
		<line class="st18" x1="203.87" y1="541.58" x2="187.12" y2="542.27"/>
		<line class="st18" x1="201.16" y1="532.97" x2="185.64" y2="539.22"/>
		<line class="st18" x1="199.21" y1="530.09" x2="185.26" y2="537.99"/>
		<line class="st18" x1="196.88" y1="527.62" x2="184.61" y2="536.93"/>
		<line class="st18" x1="195.03" y1="525.43" x2="184.05" y2="535.42"/>
		<line class="st18" x1="202.37" y1="535.81" x2="186.66" y2="540.16"/>
		<line class="st18" x1="203.3" y1="538.35" x2="186.76" y2="541.41"/>
		<line class="st18" x1="192.83" y1="523.81" x2="183.3" y2="534.45"/>
		<line class="st18" x1="176.14" y1="516.55" x2="173.11" y2="528.49"/>
		<line class="st18" x1="178.46" y1="516.86" x2="174.54" y2="529.13"/>
		<line class="st18" x1="180.77" y1="517.93" x2="176.06" y2="529.89"/>
		<line class="st18" x1="185.87" y1="520.26" x2="178.92" y2="531.74"/>
		<line class="st18" x1="173.56" y1="515.87" x2="171.49" y2="528.1"/>
		<line class="st18" x1="169.46" y1="515.29" x2="168.17" y2="527.35"/>
		<line class="st18" x1="167.34" y1="514.95" x2="166.19" y2="527.07"/>
		<line class="st18" x1="163.07" y1="514.72" x2="162.92" y2="527.01"/>
		<line class="st18" x1="165.18" y1="514.66" x2="164.64" y2="527.07"/>
		<line class="st18" x1="171.04" y1="571.46" x2="169.5" y2="560.11"/>
		<line class="st18" x1="203.39" y1="543.69" x2="186.63" y2="543.78"/>
		<line class="st18" x1="189.74" y1="564.65" x2="181.63" y2="554.42"/>
		<line class="st18" x1="182.54" y1="568.16" x2="177.24" y2="557.13"/>
		<line class="st18" x1="187.63" y1="565.96" x2="180.19" y2="555.23"/>
		<line class="st18" x1="203.44" y1="546.27" x2="186.69" y2="545.58"/>
		<line class="st18" x1="200.73" y1="554.87" x2="185.93" y2="548.8"/>
		<line class="st18" x1="198.45" y1="557.57" x2="185.2" y2="549.86"/>
		<line class="st18" x1="196.19" y1="560.03" x2="184.53" y2="551.18"/>
		<line class="st18" x1="194.08" y1="561.94" x2="183.62" y2="552.42"/>
		<line class="st18" x1="201.93" y1="552.04" x2="186.23" y2="547.69"/>
		<line class="st18" x1="202.87" y1="549.49" x2="186.33" y2="546.44"/>
		<line class="st18" x1="191.92" y1="563.51" x2="182.87" y2="553.4"/>
		<line class="st18" x1="175.48" y1="570.42" x2="172.68" y2="559.36"/>
		<line class="st18" x1="177.8" y1="569.75" x2="174.11" y2="558.72"/>
		<line class="st18" x1="180.01" y1="569.07" x2="175.63" y2="557.96"/>
		<line class="st18" x1="185.22" y1="567.23" x2="178.68" y2="556.43"/>
		<line class="st18" x1="173.07" y1="570.88" x2="171.06" y2="559.75"/>
		<line class="st18" x1="168.94" y1="571.72" x2="167.74" y2="560.5"/>
		<line class="st18" x1="166.82" y1="571.95" x2="165.76" y2="560.77"/>
		<line class="st18" x1="162.98" y1="572.21" x2="162.76" y2="561.15"/>
		<line class="st18" x1="164.69" y1="572.14" x2="164.16" y2="561.18"/>
		<line class="st18" x1="152.02" y1="571.59" x2="153.77" y2="560.5"/>
		<line class="st18" x1="116.1" y1="544.89" x2="134.84" y2="544.39"/>
		<line class="st18" x1="131.36" y1="564.32" x2="140.19" y2="554.18"/>
		<line class="st18" x1="138.85" y1="568.59" x2="144.98" y2="557.64"/>
		<line class="st18" x1="133.56" y1="565.75" x2="141.62" y2="555.37"/>
		<line class="st18" x1="116.17" y1="546.76" x2="134.77" y2="546.1"/>
		<line class="st18" x1="121.25" y1="555.05" x2="136.41" y2="549.02"/>
		<line class="st18" x1="123.24" y1="557.43" x2="136.83" y2="550.19"/>
		<line class="st18" x1="125.04" y1="559.37" x2="137.55" y2="551.2"/>
		<line class="st18" x1="127.24" y1="561.47" x2="137.94" y2="552.41"/>
		<line class="st18" x1="119.71" y1="552.04" x2="135.28" y2="548.12"/>
		<line class="st18" x1="118.6" y1="549.56" x2="135.16" y2="546.92"/>
		<line class="st18" x1="129.22" y1="563.26" x2="139.01" y2="553.58"/>
		<line class="st18" x1="146.96" y1="570.67" x2="150.2" y2="559.67"/>
		<line class="st18" x1="144.38" y1="570.37" x2="148.56" y2="559.13"/>
		<line class="st18" x1="141.81" y1="569.35" x2="146.81" y2="558.45"/>
		<line class="st18" x1="136.15" y1="567.13" x2="143.15" y2="556.45"/>
		<line class="st18" x1="149.83" y1="571.31" x2="152.05" y2="559.99"/>
		<line class="st18" x1="154.37" y1="571.87" x2="155.75" y2="560.83"/>
		<line class="st18" x1="156.73" y1="572.19" x2="157.6" y2="561.33"/>
		<line class="st18" x1="161.46" y1="572.42" x2="161.64" y2="560.68"/>
		<line class="st18" x1="158.71" y1="572.36" x2="159.18" y2="561.47"/>
		<line class="st18" x1="151.83" y1="515.61" x2="153.64" y2="527.05"/>
		<line class="st18" x1="118.52" y1="540.4" x2="134.7" y2="541.59"/>
		<line class="st18" x1="132.14" y1="522.01" x2="141.45" y2="532.09"/>
		<line class="st18" x1="139.51" y1="518.41" x2="145.71" y2="529.49"/>
		<line class="st18" x1="134.16" y1="520.56" x2="142.6" y2="531.27"/>
		<line class="st18" x1="118.47" y1="537.99" x2="135.42" y2="540.12"/>
		<line class="st18" x1="121.45" y1="531.26" x2="137.22" y2="536.71"/>
		<line class="st18" x1="123.59" y1="528.79" x2="137.61" y2="535.61"/>
		<line class="st18" x1="125.54" y1="526.36" x2="138.29" y2="534.67"/>
		<line class="st18" x1="127.78" y1="524.66" x2="139.24" y2="533.92"/>
		<line class="st18" x1="119.84" y1="533.67" x2="136.16" y2="537.55"/>
		<line class="st18" x1="118.87" y1="535.94" x2="136.05" y2="538.67"/>
		<line class="st18" x1="129.75" y1="522.95" x2="140.18" y2="532.97"/>
		<line class="st18" x1="147.1" y1="516.48" x2="150.44" y2="527.82"/>
		<line class="st18" x1="144.68" y1="516.75" x2="148.93" y2="528.17"/>
		<line class="st18" x1="142.27" y1="517.7" x2="147.34" y2="528.73"/>
		<line class="st18" x1="136.97" y1="519.79" x2="144.14" y2="530.35"/>
		<line class="st18" x1="149.78" y1="515.87" x2="152.05" y2="527.4"/>
		<line class="st18" x1="154.03" y1="515.35" x2="155.46" y2="526.79"/>
		<line class="st18" x1="156.24" y1="515.05" x2="157.06" y2="526.51"/>
		<line class="st18" x1="160.67" y1="514.84" x2="160.83" y2="525.81"/>
		<line class="st18" x1="158.48" y1="514.79" x2="158.94" y2="526.38"/>
		<line class="st18" x1="165.64" y1="538.54" x2="165.55" y2="547.37"/>
		<line class="st18" x1="155.83" y1="538.54" x2="155.73" y2="547.37"/>
		<line class="st18" x1="184.95" y1="483.15" x2="184.6" y2="519.43"/>
		<line class="st18" x1="174.06" y1="481.86" x2="173.72" y2="516.64"/>
		<line class="st18" x1="195.85" y1="483.15" x2="196.12" y2="526.87"/>
		<line class="st18" x1="171.62" y1="571.33" x2="172.07" y2="598.82"/>
		<line class="st18" x1="184.55" y1="567.42" x2="185.07" y2="598.82"/>
		<line class="st18" x1="196.33" y1="559.54" x2="196.58" y2="598.82"/>
	</g>
	<path class="st2" d="M273.58,306.57H137.83c-1.23-1.22-2.45-2.43-3.68-3.65c47.94-0.11,95.89-0.23,143.83-0.34
		C276.52,303.91,275.05,305.24,273.58,306.57z"/>
	<path class="st2" d="M450.09,306.57H314.34c-1.23-1.22-2.45-2.43-3.68-3.65c47.94-0.11,95.89-0.23,143.83-0.34
		C453.03,303.91,451.56,305.24,450.09,306.57z"/>
	
		<rect x="313.87" y="426.26" transform="matrix(-1 -1.224647e-16 1.224647e-16 -1 763.4838 858.6774)" class="st1" width="135.75" height="6.16"/>
	
		<rect x="136.64" y="426.26" transform="matrix(-1 -1.224647e-16 1.224647e-16 -1 409.036 858.6774)" class="st1" width="135.75" height="6.16"/>
	
		<rect x="143.29" y="431.01" transform="matrix(-1 -1.224647e-16 1.224647e-16 -1 313.3994 868.1739)" class="st1" width="26.81" height="6.16"/>
	
		<rect x="193.04" y="431.01" transform="matrix(-1 -1.224647e-16 1.224647e-16 -1 412.8814 868.1739)" class="st1" width="26.81" height="6.16"/>
	
		<rect x="320.47" y="430.82" transform="matrix(-1 -1.224647e-16 1.224647e-16 -1 667.7429 867.8084)" class="st1" width="26.81" height="6.16"/>
	
		<rect x="370.44" y="430.46" transform="matrix(-1 -1.224647e-16 1.224647e-16 -1 767.697 867.0774)" class="st1" width="26.81" height="6.16"/>
	
		<rect x="198.24" y="125.18" transform="matrix(-1 -1.224647e-16 1.224647e-16 -1 590.0564 255.0836)" class="st1" width="193.57" height="4.73"/>
	<path class="st1" d="M473.95,136.87c-27.38-1.3-54.76-2.6-82.14-3.9l0.21-4.45c27.32,1.3,54.64,2.6,81.96,3.89
		C473.97,133.89,473.96,135.38,473.95,136.87z"/>
	
		<rect x="241.02" y="431.01" transform="matrix(-1 -1.224647e-16 1.224647e-16 -1 508.8487 868.1739)" class="st1" width="26.81" height="6.16"/>
	
		<rect x="417.47" y="430.46" transform="matrix(-1 -1.224647e-16 1.224647e-16 -1 861.7509 867.0774)" class="st1" width="26.81" height="6.16"/>
	<g>
		<rect x="221.52" y="158.69" class="st3" width="2.58" height="3.99"/>
		<rect x="214.25" y="158.69" class="st3" width="2.58" height="3.99"/>
		<rect x="236.64" y="158.69" class="st3" width="2.58" height="3.99"/>
		<rect x="229.37" y="158.69" class="st3" width="2.58" height="3.99"/>
		<rect x="251.08" y="158.86" class="st3" width="2.58" height="3.99"/>
		<rect x="243.81" y="158.86" class="st3" width="2.58" height="3.99"/>
		<rect x="266.2" y="158.86" class="st3" width="2.58" height="3.99"/>
		<rect x="258.93" y="158.86" class="st3" width="2.58" height="3.99"/>
		<rect x="280.45" y="158.69" class="st3" width="2.58" height="3.99"/>
		<rect x="273.18" y="158.69" class="st3" width="2.58" height="3.99"/>
		<rect x="295.57" y="158.69" class="st3" width="2.58" height="3.99"/>
		<rect x="288.3" y="158.69" class="st3" width="2.58" height="3.99"/>
		<rect x="309.49" y="158.69" class="st3" width="2.58" height="3.99"/>
		<rect x="302.23" y="158.69" class="st3" width="2.58" height="3.99"/>
		<rect x="324.61" y="158.69" class="st3" width="2.58" height="3.99"/>
		<rect x="317.34" y="158.69" class="st3" width="2.58" height="3.99"/>
		<rect x="340.29" y="158.86" class="st3" width="2.58" height="3.99"/>
		<rect x="333.03" y="158.86" class="st3" width="2.58" height="3.99"/>
		<rect x="355.41" y="158.86" class="st3" width="2.58" height="3.99"/>
		<rect x="348.14" y="158.86" class="st3" width="2.58" height="3.99"/>
		<rect x="370.43" y="158.86" class="st3" width="2.58" height="3.99"/>
		<rect x="363.16" y="158.86" class="st3" width="2.58" height="3.99"/>
	</g>
	
		<rect x="193.45" y="126.61" transform="matrix(-1.836970e-16 1 -1 -1.836970e-16 326.2377 -68.2742)" class="st1" width="7.61" height="4.74"/>
	
		<rect x="389.96" y="126.61" transform="matrix(-1.836970e-16 1 -1 -1.836970e-16 522.7483 -264.7848)" class="st1" width="7.61" height="4.74"/>
	<path class="st1" d="M116.1,139.03c27.9-1.33,55.81-2.65,83.71-3.98l-0.21-4.45c-27.85,1.32-55.7,2.65-83.55,3.97
		C116.07,136.05,116.09,137.54,116.1,139.03z"/>
	<text transform="matrix(1 0 0 1 233.6947 483.0097)" class="st12 st19 st20">DOGGO LOVE</text>
</g>
</svg>
