<?xml version="1.0" encoding="utf-8"?>
<!-- Generator: Adobe Illustrator 27.2.0, SVG Export Plug-In . SVG Version: 6.00 Build 0)  -->
<svg version="1.1" xmlns="http://www.w3.org/2000/svg" xmlns:xlink="http://www.w3.org/1999/xlink" x="0px" y="0px"
	 viewBox="0 0 612 792" style="enable-background:new 0 0 612 792;" xml:space="preserve">
<style type="text/css">
	.st0{display:none;}
	.st1{display:inline;fill:#EEEEEC;}
	.st2{display:inline;opacity:0.8;fill:#647996;}
	.st3{display:inline;fill:#D3D1C6;}
	.st4{display:inline;fill:#EFECD3;}
	.st5{fill:#E7DFD5;}
	.st6{fill:#1A191B;}
	.st7{fill:#FFFFFF;}
	.st8{fill:#865E3C;}
	.st9{fill:#C7D4DD;}
	.st10{fill:#1D1518;}
	.st11{fill:#1E1F24;}
	.st12{fill:#7D2423;}
	.st13{fill:#9C3131;}
	.st14{fill:#17181D;}
	.st15{fill:#D3D1C6;}
	.st16{fill:#9F9FB4;}
	.st17{fill:#242429;}
	.st18{font-family:'Kanit-ExtraBold';}
	.st19{font-size:13.3738px;}
	.st20{fill:#404E71;}
	.st21{fill:#32639E;}
	.st22{opacity:0.8;fill:#647996;}
	.st23{fill:#EDEFF7;}
	.st24{fill:#EEEEEC;}
	.st25{opacity:0.8;fill:#566982;}
	.st26{fill:#B53B3B;}
	.st27{fill:#383839;}
	.st28{fill:#7C807C;}
	.st29{fill:#D3D1E7;}
	.st30{fill:#120A41;}
	.st31{font-family:'Arial-Black';}
	.st32{font-size:16.595px;}
	.st33{font-family:'MyriadPro-Regular';}
	.st34{font-size:6px;}
	.st35{font-size:8px;}
	.st36{fill:#6D6E71;}
	.st37{fill:#A7A9AB;}
	.st38{font-size:1.3749px;}
	.st39{font-size:1.8331px;}
</style>
<g id="Layer_4" class="st0">
	<path class="st1" d="M379.86,156.42c10.18,25.04,4.14,34.96,1.67,38.08c-7.26,9.17-19.6,4.97-61.67,4.35
		c-35.18-0.52-58.91-6.02-60.68-6.27c-48.18-6.62-72.28-10.03-72.56-14.64c-0.24-3.82,11.3-10.4,75.34-21.52c0-2.38,0-4.77,0-7.15
		c13.37-10.39,24.14-19.5,32.04-26.4c14.82-12.95,19.19-17.87,26.96-18.03c7.6-0.15,12.58,4.36,30.48,19.91
		c13.59,11.8,23.92,20.66,28.42,24.52C379.86,151.65,379.86,154.04,379.86,156.42z"/>
	
		<rect x="247.24" y="124.7" transform="matrix(0.7583 -0.6519 0.6519 0.7583 -14.1485 218.683)" class="st2" width="81.15" height="7.44"/>
	
		<rect x="306.75" y="121.33" transform="matrix(-0.7962 -0.6051 0.6051 -0.7962 548.186 434.761)" class="st2" width="81.15" height="7.44"/>
	<rect x="262.7" y="148.87" class="st2" width="118.44" height="7.44"/>
	
		<rect x="181.41" y="145.93" transform="matrix(0.9547 -0.2975 0.2975 0.9547 -34.4654 72.805)" class="st2" width="81.15" height="7.44"/>
	
		<rect x="387.08" y="148.2" transform="matrix(0.9799 0.1993 -0.1993 0.9799 38.8606 -82.1906)" class="st2" width="81.15" height="7.44"/>
	<path class="st1" d="M273.66,178.21h-85.05c-0.05-4.92-0.09-9.85-0.14-14.77c23.48-7.75,46.96-15.5,70.44-23.25
		C263.83,152.86,268.74,165.53,273.66,178.21z"/>
	<path class="st1" d="M462.63,178.21c-32.67,0-65.34,0-98,0c10.57-11.16,21.15-22.32,31.72-33.48c22.4,6.25,44.8,12.51,67.21,18.76
		C463.24,168.39,462.94,173.3,462.63,178.21z"/>
	<path class="st1" d="M478.16,164.45"/>
	<rect x="207.27" y="141.13" class="st3" width="23.74" height="37.45"/>
	<rect x="377.55" y="141.13" class="st3" width="23.74" height="37.45"/>
	<rect x="413.41" y="141.13" class="st3" width="23.74" height="37.45"/>
	<rect x="242.86" y="141.13" class="st3" width="23.74" height="37.45"/>
	<circle class="st3" cx="219.14" cy="131.82" r="11.87"/>
	<circle class="st3" cx="254.73" cy="131.82" r="11.87"/>
	<circle class="st3" cx="389.42" cy="131.82" r="11.87"/>
	<circle class="st3" cx="425.28" cy="131.82" r="11.87"/>
	<circle class="st3" cx="500.68" cy="166.34" r="11.87"/>
	<circle class="st3" cx="145.68" cy="166.34" r="11.87"/>
	<rect x="202.15" y="141.13" class="st3" width="32.84" height="8.52"/>
	<rect x="238.31" y="141.13" class="st3" width="32.84" height="8.52"/>
	<rect x="373" y="141.13" class="st3" width="32.84" height="8.52"/>
	<rect x="408.86" y="141.13" class="st3" width="32.84" height="8.52"/>
	<rect x="373" y="147.09" class="st4" width="32.84" height="2.55"/>
	<rect x="408.86" y="147.09" class="st4" width="32.84" height="2.55"/>
	<rect x="201.96" y="147.09" class="st4" width="32.84" height="2.55"/>
	<rect x="238.31" y="147.09" class="st4" width="32.84" height="2.55"/>
</g>
<g id="Layer_2">
	<rect x="133.81" y="462.71" class="st5" width="80.6" height="161.93"/>
	<rect x="133.81" y="479.14" class="st6" width="32.24" height="23.32"/>
	<rect x="174.11" y="479.14" class="st6" width="32.24" height="23.32"/>
	<rect x="133.81" y="462.71" class="st7" width="80.6" height="6.95"/>
	
		<rect x="131.71" y="542.03" transform="matrix(-1.836970e-16 1 -1 -1.836970e-16 756.3416 334.6714)" class="st7" width="158.25" height="6.95"/>
</g>
<g id="Layer_1">
	<rect x="214.4" y="528.92" class="st8" width="297.4" height="95.72"/>
	<rect x="133.81" y="178.21" class="st9" width="378.04" height="284.5"/>
	<rect x="214.4" y="462.71" class="st10" width="297.4" height="45.05"/>
	<g>
		<rect x="277.05" y="462.71" class="st11" width="170.05" height="45.05"/>
		<rect x="242.26" y="462.71" class="st12" width="34.79" height="45.05"/>
		<rect x="311.84" y="462.71" class="st13" width="34.79" height="45.05"/>
		<rect x="381.14" y="462.71" class="st13" width="34.79" height="45.05"/>
		<rect x="447.21" y="462.71" class="st12" width="34.79" height="45.05"/>
	</g>
	<rect x="214.4" y="507.76" class="st14" width="297.4" height="21.16"/>
	<rect x="134.5" y="178.21" class="st15" width="378.04" height="10.22"/>
	<rect x="133.81" y="188.42" class="st16" width="378.04" height="10.22"/>
	<rect x="134.5" y="198.42" class="st15" width="378.04" height="10.22"/>
	<rect x="277.05" y="528.92" class="st15" width="9.34" height="95.93"/>
	<rect x="277.05" y="507.76" class="st17" width="170.16" height="21.16"/>
	<text transform="matrix(1 0 0 1 302.0223 522.5928)" class="st7 st18 st19">Hamburger Mary’s</text>
	<rect x="438.05" y="528.92" class="st15" width="9.34" height="95.93"/>
	<rect x="175.02" y="511.35" class="st20" width="32.24" height="113.5"/>
	<rect x="133.81" y="511.35" class="st20" width="32.24" height="113.5"/>
	<rect x="139.72" y="566.13" class="st21" width="19.84" height="48.84"/>
	<rect x="181.23" y="566.13" class="st21" width="19.84" height="48.84"/>
	<rect x="141.38" y="569.41" class="st20" width="16.53" height="42.27"/>
	<rect x="182.88" y="569.41" class="st20" width="16.53" height="42.27"/>
	<rect x="166.05" y="208.64" class="st22" width="72.26" height="254.07"/>
	<rect x="292.11" y="208.42" class="st22" width="72.26" height="254.28"/>
	<rect x="411.08" y="208.42" class="st22" width="72.26" height="254.28"/>
	<rect x="166.05" y="423.44" class="st23" width="72.26" height="10.26"/>
	<rect x="165.83" y="358.89" class="st23" width="72.26" height="10.26"/>
	<rect x="166.05" y="327.27" class="st24" width="72.26" height="7.44"/>
	<rect x="292.11" y="327.27" class="st24" width="72.26" height="7.44"/>
	<rect x="411.08" y="327.36" class="st24" width="72.26" height="7.44"/>
	
		<rect x="200.14" y="395.18" transform="matrix(-1.836970e-16 1 -1 -1.836970e-16 633.4941 158.7513)" class="st23" width="74.46" height="1.88"/>
	
		<rect x="180.51" y="397.73" transform="matrix(-1.836970e-16 1 -1 -1.836970e-16 613.6038 183.5151)" class="st23" width="69.07" height="1.66"/>
	
		<rect x="132.03" y="395.59" transform="matrix(-1.836970e-16 1 -1 -1.836970e-16 563.2374 229.6014)" class="st23" width="69.58" height="1.66"/>
	
		<rect x="157.1" y="396.39" transform="matrix(-1.836970e-16 1 -1 -1.836970e-16 588.8599 205.5912)" class="st23" width="69.07" height="1.66"/>
	<rect x="292.22" y="423.62" class="st23" width="72.26" height="10.26"/>
	<rect x="292" y="359.07" class="st23" width="72.26" height="10.26"/>
	
		<rect x="326.31" y="395.36" transform="matrix(-1.836970e-16 1 -1 -1.836970e-16 759.8397 32.7612)" class="st23" width="74.46" height="1.88"/>
	
		<rect x="306.68" y="397.91" transform="matrix(-1.836970e-16 1 -1 -1.836970e-16 739.9493 57.525)" class="st23" width="69.07" height="1.66"/>
	
		<rect x="258.19" y="395.77" transform="matrix(-1.836970e-16 1 -1 -1.836970e-16 689.583 103.6113)" class="st23" width="69.58" height="1.66"/>
	
		<rect x="283.27" y="396.57" transform="matrix(-1.836970e-16 1 -1 -1.836970e-16 715.2055 79.6011)" class="st23" width="69.07" height="1.66"/>
	<rect x="411.19" y="425.88" class="st23" width="72.26" height="10.26"/>
	<rect x="410.97" y="361.33" class="st23" width="72.26" height="10.26"/>
	
		<rect x="445.28" y="397.62" transform="matrix(-1.836970e-16 1 -1 -1.836970e-16 881.0728 -83.9529)" class="st23" width="74.46" height="1.88"/>
	
		<rect x="425.65" y="400.16" transform="matrix(-1.836970e-16 1 -1 -1.836970e-16 861.1825 -59.1892)" class="st23" width="69.07" height="1.66"/>
	
		<rect x="377.17" y="398.02" transform="matrix(-1.836970e-16 1 -1 -1.836970e-16 810.8162 -13.1028)" class="st23" width="69.58" height="1.66"/>
	
		<rect x="402.24" y="398.83" transform="matrix(-1.836970e-16 1 -1 -1.836970e-16 836.4387 -37.1131)" class="st23" width="69.07" height="1.66"/>
	<rect x="165.71" y="228.03" class="st23" width="72.26" height="10.26"/>
	
		<rect x="200.02" y="264.32" transform="matrix(-1.836970e-16 1 -1 -1.836970e-16 502.5139 28.0113)" class="st23" width="74.46" height="1.88"/>
	
		<rect x="180.39" y="266.87" transform="matrix(-1.836970e-16 1 -1 -1.836970e-16 482.6236 52.7751)" class="st23" width="69.07" height="1.66"/>
	
		<rect x="131.91" y="264.73" transform="matrix(-1.836970e-16 1 -1 -1.836970e-16 432.2573 98.8614)" class="st23" width="69.58" height="1.66"/>
	
		<rect x="156.98" y="265.53" transform="matrix(-1.836970e-16 1 -1 -1.836970e-16 457.8798 74.8512)" class="st23" width="69.07" height="1.66"/>
	<path class="st23" d="M365.41,303.51c-25.08-0.1-50.16-0.2-75.23-0.3c-0.61-3.46-1.21-6.91-1.82-10.37
		c26.15,0.13,52.3,0.26,78.45,0.4C366.34,296.67,365.88,300.09,365.41,303.51z"/>
	<rect x="291.88" y="228.21" class="st23" width="72.26" height="10.26"/>
	
		<rect x="326.19" y="264.5" transform="matrix(-1.836970e-16 1 -1 -1.836970e-16 628.8595 -97.9788)" class="st23" width="74.46" height="1.88"/>
	
		<rect x="305.99" y="267.05" transform="matrix(-1.836970e-16 1 -1 -1.836970e-16 608.3999 -72.6458)" class="st23" width="69.07" height="1.66"/>
	
		<rect x="258.07" y="264.91" transform="matrix(-1.836970e-16 1 -1 -1.836970e-16 558.6028 -27.1287)" class="st23" width="69.58" height="1.66"/>
	
		<rect x="283.15" y="265.71" transform="matrix(-1.836970e-16 1 -1 -1.836970e-16 584.2253 -51.1389)" class="st23" width="69.07" height="1.66"/>
	<rect x="411.07" y="295.02" class="st23" width="72.26" height="10.26"/>
	<rect x="410.85" y="230.47" class="st23" width="72.26" height="10.26"/>
	
		<rect x="445.16" y="266.76" transform="matrix(-1.836970e-16 1 -1 -1.836970e-16 750.0927 -214.6929)" class="st23" width="74.46" height="1.88"/>
	
		<rect x="425.53" y="269.3" transform="matrix(-1.836970e-16 1 -1 -1.836970e-16 730.2023 -189.9292)" class="st23" width="69.07" height="1.66"/>
	
		<rect x="377.05" y="267.16" transform="matrix(-1.836970e-16 1 -1 -1.836970e-16 679.836 -143.8428)" class="st23" width="69.58" height="1.66"/>
	
		<rect x="402.12" y="267.97" transform="matrix(-1.836970e-16 1 -1 -1.836970e-16 705.4585 -167.8531)" class="st23" width="69.07" height="1.66"/>
	
		<rect x="141.34" y="395.47" transform="matrix(-1.836970e-16 1 -1 -1.836970e-16 564.7819 227.8179)" class="st22" width="54.28" height="1.66"/>
	
		<rect x="162.89" y="395.53" transform="matrix(-1.836970e-16 1 -1 -1.836970e-16 586.3301 206.3892)" class="st22" width="54.16" height="1.66"/>
	
		<rect x="168.48" y="369.16" transform="matrix(-1 -1.224647e-16 1.224647e-16 -1 359.2844 739.9803)" class="st22" width="22.32" height="1.66"/>
	
		<rect x="168.48" y="421.78" transform="matrix(-1 -1.224647e-16 1.224647e-16 -1 359.2844 845.2192)" class="st22" width="22.32" height="1.66"/>
	
		<rect x="166.16" y="395.59" transform="matrix(-1.836970e-16 1 -1 -1.836970e-16 589.7177 203.1211)" class="st22" width="54.28" height="1.66"/>
	
		<rect x="186.3" y="395.65" transform="matrix(-1.836970e-16 1 -1 -1.836970e-16 609.8596 183.0988)" class="st22" width="54.16" height="1.66"/>
	
		<rect x="192.72" y="369.16" transform="matrix(-1 -1.224647e-16 1.224647e-16 -1 406.9362 739.9803)" class="st22" width="21.49" height="1.66"/>
	
		<rect x="193.3" y="421.9" transform="matrix(-1 -1.224647e-16 1.224647e-16 -1 407.5107 845.4583)" class="st22" width="20.91" height="1.66"/>
	
		<rect x="189.57" y="395.53" transform="matrix(-1.836970e-16 1 -1 -1.836970e-16 613.0679 179.6514)" class="st22" width="54.28" height="1.66"/>
	
		<rect x="216.13" y="369.1" transform="matrix(-1 -1.224647e-16 1.224647e-16 -1 452.5636 739.8608)" class="st22" width="20.3" height="1.66"/>
	
		<rect x="216.71" y="421.84" transform="matrix(-1 -1.224647e-16 1.224647e-16 -1 453.138 845.3387)" class="st22" width="19.72" height="1.66"/>
	
		<rect x="208.52" y="395.65" transform="matrix(-1.836970e-16 1 -1 -1.836970e-16 632.077 160.8814)" class="st22" width="54.16" height="1.66"/>
	
		<rect x="141.14" y="264.61" transform="matrix(-1.836970e-16 1 -1 -1.836970e-16 433.7255 97.1552)" class="st22" width="54.28" height="1.66"/>
	
		<rect x="162.69" y="264.67" transform="matrix(-1.836970e-16 1 -1 -1.836970e-16 455.2737 75.7265)" class="st22" width="54.16" height="1.66"/>
	
		<rect x="168.29" y="238.3" transform="matrix(-1 -1.224647e-16 1.224647e-16 -1 358.8907 478.2613)" class="st22" width="22.32" height="1.66"/>
	
		<rect x="168.29" y="290.92" transform="matrix(-1 -1.224647e-16 1.224647e-16 -1 358.8907 583.5002)" class="st22" width="22.32" height="1.66"/>
	
		<rect x="165.96" y="264.73" transform="matrix(-1.836970e-16 1 -1 -1.836970e-16 458.6614 72.4584)" class="st22" width="54.28" height="1.66"/>
	
		<rect x="186.1" y="264.79" transform="matrix(-1.836970e-16 1 -1 -1.836970e-16 478.8032 52.4361)" class="st22" width="54.16" height="1.66"/>
	
		<rect x="192.53" y="238.3" transform="matrix(-1 -1.224647e-16 1.224647e-16 -1 406.5426 478.2613)" class="st22" width="21.49" height="1.66"/>
	
		<rect x="193.1" y="291.04" transform="matrix(-1 -1.224647e-16 1.224647e-16 -1 407.1171 583.7392)" class="st22" width="20.91" height="1.66"/>
	
		<rect x="189.37" y="264.67" transform="matrix(-1.836970e-16 1 -1 -1.836970e-16 482.0116 48.9887)" class="st22" width="54.28" height="1.66"/>
	
		<rect x="215.94" y="238.24" transform="matrix(-1 -1.224647e-16 1.224647e-16 -1 452.17 478.1418)" class="st22" width="20.3" height="1.66"/>
	
		<rect x="216.51" y="290.98" transform="matrix(-1 -1.224647e-16 1.224647e-16 -1 452.7444 583.6197)" class="st22" width="19.72" height="1.66"/>
	
		<rect x="208.32" y="264.79" transform="matrix(-1.836970e-16 1 -1 -1.836970e-16 501.0206 30.2187)" class="st22" width="54.16" height="1.66"/>
	
		<rect x="267.65" y="264.76" transform="matrix(-1.836970e-16 1 -1 -1.836970e-16 560.3821 -29.2027)" class="st25" width="54.28" height="1.66"/>
	
		<rect x="289.2" y="264.82" transform="matrix(-1.836970e-16 1 -1 -1.836970e-16 581.9304 -50.6314)" class="st25" width="54.16" height="1.66"/>
	
		<rect x="294.79" y="238.45" transform="matrix(-1 -1.224647e-16 1.224647e-16 -1 611.9053 478.5601)" class="st25" width="22.32" height="1.66"/>
	
		<rect x="294.79" y="291.07" transform="matrix(-1 -1.224647e-16 1.224647e-16 -1 611.9053 583.799)" class="st25" width="22.32" height="1.66"/>
	
		<rect x="292.47" y="264.88" transform="matrix(-1.836970e-16 1 -1 -1.836970e-16 585.3181 -53.8995)" class="st25" width="54.28" height="1.66"/>
	
		<rect x="311.78" y="264.94" transform="matrix(-1.836970e-16 1 -1 -1.836970e-16 604.6279 -73.0899)" class="st22" width="54.16" height="1.66"/>
	
		<rect x="318.51" y="238.45" transform="matrix(-1 -1.224647e-16 1.224647e-16 -1 658.205 478.5601)" class="st25" width="21.18" height="1.66"/>
	
		<rect x="319.61" y="291.19" transform="matrix(-1 -1.224647e-16 1.224647e-16 -1 659.2996 584.038)" class="st25" width="20.08" height="1.66"/>
	
		<rect x="315.88" y="264.82" transform="matrix(-1.836970e-16 1 -1 -1.836970e-16 608.6682 -77.3692)" class="st25" width="54.28" height="1.66"/>
	
		<rect x="341.92" y="238.39" transform="matrix(-1 -1.224647e-16 1.224647e-16 -1 704.4016 478.4406)" class="st25" width="20.55" height="1.66"/>
	
		<rect x="342.58" y="291.48" transform="matrix(-1 -1.224647e-16 1.224647e-16 -1 705.0544 584.6329)" class="st25" width="19.9" height="1.66"/>
	
		<rect x="334.61" y="264.89" transform="matrix(-1.836970e-16 1 -1 -1.836970e-16 627.3687 -95.9224)" class="st25" width="54.07" height="1.66"/>
	
		<rect x="267.65" y="395.74" transform="matrix(-1.836970e-16 1 -1 -1.836970e-16 691.3597 101.7749)" class="st22" width="54.28" height="1.66"/>
	
		<rect x="289.2" y="395.8" transform="matrix(-1.836970e-16 1 -1 -1.836970e-16 712.9079 80.3461)" class="st22" width="54.16" height="1.66"/>
	
		<rect x="294.79" y="369.43" transform="matrix(-1 -1.224647e-16 1.224647e-16 -1 611.9053 740.5151)" class="st22" width="22.32" height="1.66"/>
	
		<rect x="294.79" y="422.05" transform="matrix(-1 -1.224647e-16 1.224647e-16 -1 611.9053 845.754)" class="st22" width="22.32" height="1.66"/>
	
		<rect x="292.47" y="395.85" transform="matrix(-1.836970e-16 1 -1 -1.836970e-16 716.2955 77.078)" class="st22" width="54.28" height="1.66"/>
	
		<rect x="312.61" y="395.91" transform="matrix(-1.836970e-16 1 -1 -1.836970e-16 736.4374 57.0557)" class="st22" width="54.16" height="1.66"/>
	
		<rect x="319.03" y="369.43" transform="matrix(-1 -1.224647e-16 1.224647e-16 -1 659.5571 740.5151)" class="st22" width="21.49" height="1.66"/>
	
		<rect x="319.61" y="422.16" transform="matrix(-1 -1.224647e-16 1.224647e-16 -1 660.1316 845.993)" class="st22" width="20.91" height="1.66"/>
	
		<rect x="315.88" y="395.8" transform="matrix(-1.836970e-16 1 -1 -1.836970e-16 739.6458 53.6083)" class="st22" width="54.28" height="1.66"/>
	
		<rect x="342.44" y="369.37" transform="matrix(-1 -1.224647e-16 1.224647e-16 -1 705.1845 740.3956)" class="st22" width="20.3" height="1.66"/>
	
		<rect x="343.02" y="422.1" transform="matrix(-1 -1.224647e-16 1.224647e-16 -1 705.7589 845.8735)" class="st22" width="19.72" height="1.66"/>
	
		<rect x="334.83" y="395.91" transform="matrix(-1.836970e-16 1 -1 -1.836970e-16 758.6548 34.8383)" class="st22" width="54.16" height="1.66"/>
	
		<rect x="386.28" y="266.84" transform="matrix(-1.836970e-16 1 -1 -1.836970e-16 681.0966 -145.7566)" class="st22" width="54.28" height="1.66"/>
	
		<rect x="407.83" y="266.9" transform="matrix(-1.836970e-16 1 -1 -1.836970e-16 702.6448 -167.1854)" class="st22" width="54.16" height="1.66"/>
	
		<rect x="413.43" y="240.53" transform="matrix(-1 -1.224647e-16 1.224647e-16 -1 849.1737 482.7205)" class="st22" width="22.32" height="1.66"/>
	
		<rect x="413.43" y="293.15" transform="matrix(-1 -1.224647e-16 1.224647e-16 -1 849.1737 587.9595)" class="st22" width="22.32" height="1.66"/>
	
		<rect x="411.1" y="266.96" transform="matrix(-1.836970e-16 1 -1 -1.836970e-16 706.0325 -170.4535)" class="st22" width="54.28" height="1.66"/>
	
		<rect x="431.24" y="267.02" transform="matrix(-1.836970e-16 1 -1 -1.836970e-16 726.1743 -190.4758)" class="st22" width="54.16" height="1.66"/>
	
		<rect x="437.67" y="240.53" transform="matrix(-1 -1.224647e-16 1.224647e-16 -1 896.8256 482.7205)" class="st22" width="21.49" height="1.66"/>
	
		<rect x="438.24" y="293.27" transform="matrix(-1 -1.224647e-16 1.224647e-16 -1 897.4 588.1985)" class="st22" width="20.91" height="1.66"/>
	
		<rect x="434.51" y="266.9" transform="matrix(-1.836970e-16 1 -1 -1.836970e-16 729.3827 -193.9232)" class="st22" width="54.28" height="1.66"/>
	
		<rect x="461.08" y="240.47" transform="matrix(-1 -1.224647e-16 1.224647e-16 -1 942.4529 482.601)" class="st22" width="20.3" height="1.66"/>
	
		<rect x="461.65" y="293.21" transform="matrix(-1 -1.224647e-16 1.224647e-16 -1 943.0273 588.079)" class="st22" width="19.72" height="1.66"/>
	
		<rect x="453.46" y="267.02" transform="matrix(-1.836970e-16 1 -1 -1.836970e-16 748.3917 -212.6932)" class="st22" width="54.16" height="1.66"/>
	
		<rect x="386.62" y="397.88" transform="matrix(-1.836970e-16 1 -1 -1.836970e-16 812.4733 -15.0588)" class="st22" width="54.28" height="1.66"/>
	
		<rect x="408.17" y="397.94" transform="matrix(-1.836970e-16 1 -1 -1.836970e-16 834.0215 -36.4875)" class="st22" width="54.16" height="1.66"/>
	
		<rect x="413.77" y="371.57" transform="matrix(-1 -1.224647e-16 1.224647e-16 -1 849.8526 744.7951)" class="st22" width="22.32" height="1.66"/>
	
		<rect x="413.77" y="424.19" transform="matrix(-1 -1.224647e-16 1.224647e-16 -1 849.8526 850.034)" class="st22" width="22.32" height="1.66"/>
	
		<rect x="411.44" y="397.99" transform="matrix(-1.836970e-16 1 -1 -1.836970e-16 837.4092 -39.7556)" class="st22" width="54.28" height="1.66"/>
	
		<rect x="431.58" y="398.05" transform="matrix(-1.836970e-16 1 -1 -1.836970e-16 857.551 -59.778)" class="st22" width="54.16" height="1.66"/>
	
		<rect x="438.01" y="371.57" transform="matrix(-1 -1.224647e-16 1.224647e-16 -1 897.5045 744.7951)" class="st22" width="21.49" height="1.66"/>
	
		<rect x="438.58" y="424.3" transform="matrix(-1 -1.224647e-16 1.224647e-16 -1 898.0789 850.273)" class="st22" width="20.91" height="1.66"/>
	
		<rect x="434.85" y="397.94" transform="matrix(-1.836970e-16 1 -1 -1.836970e-16 860.7594 -63.2253)" class="st22" width="54.28" height="1.66"/>
	
		<rect x="461.42" y="371.51" transform="matrix(-1 -1.224647e-16 1.224647e-16 -1 943.1318 744.6756)" class="st22" width="20.3" height="1.66"/>
	
		<rect x="461.99" y="424.24" transform="matrix(-1 -1.224647e-16 1.224647e-16 -1 943.7062 850.1535)" class="st22" width="19.72" height="1.66"/>
	
		<rect x="453.8" y="398.05" transform="matrix(-1.836970e-16 1 -1 -1.836970e-16 879.7684 -81.9953)" class="st22" width="54.16" height="1.66"/>
	
		<rect x="295.21" y="264.61" transform="matrix(-1 -1.224647e-16 1.224647e-16 -1 611.9053 530.8807)" class="st25" width="21.49" height="1.66"/>
	
		<rect x="319.03" y="264.88" transform="matrix(-1 -1.224647e-16 1.224647e-16 -1 658.7252 531.4185)" class="st25" width="20.66" height="1.66"/>
	
		<rect x="342.14" y="264.94" transform="matrix(-1 -1.224647e-16 1.224647e-16 -1 704.6127 531.538)" class="st25" width="20.34" height="1.66"/>
	
		<rect x="307.24" y="263.74" transform="matrix(-1.836970e-16 1 -1 -1.836970e-16 606.3449 -77.1966)" class="st23" width="69.07" height="1.66"/>
	
		<rect x="282.71" y="265.71" transform="matrix(-1.836970e-16 1 -1 -1.836970e-16 583.7828 -50.7004)" class="st23" width="69.07" height="1.66"/>
	
		<rect x="318.29" y="265.23" transform="matrix(-1 -1.224647e-16 1.224647e-16 -1 659.0124 531.299)" class="st23" width="22.42" height="0.83"/>
	
		<rect x="342.1" y="265.29" transform="matrix(-1 -1.224647e-16 1.224647e-16 -1 706.6318 531.4185)" class="st23" width="22.42" height="0.83"/>
	
		<rect x="293.48" y="265.23" transform="matrix(-1 -1.224647e-16 1.224647e-16 -1 609.9648 531.299)" class="st23" width="23.01" height="0.83"/>
	<path class="st23" d="M239.79,303.08c-25.08-0.1-50.16-0.2-75.23-0.3c-0.61-3.46-1.21-6.91-1.82-10.37
		c26.15,0.13,52.3,0.26,78.45,0.4C240.72,296.24,240.26,299.66,239.79,303.08z"/>
	<path class="st23" d="M484.81,305.48c-25.08-0.1-50.16-0.2-75.23-0.3c-0.61-3.46-1.21-6.91-1.82-10.37
		c26.15,0.13,52.3,0.26,78.45,0.4C485.74,298.64,485.28,302.06,484.81,305.48z"/>
	<path class="st23" d="M365.72,434.51c-25.08-0.1-50.16-0.2-75.23-0.3c-0.61-3.46-1.21-6.91-1.82-10.37
		c26.15,0.13,52.3,0.26,78.45,0.4C366.65,427.67,366.19,431.09,365.72,434.51z"/>
	<path class="st23" d="M240.1,434.08c-25.08-0.1-50.16-0.2-75.23-0.3c-0.61-3.46-1.21-6.91-1.82-10.37
		c26.15,0.13,52.3,0.26,78.45,0.4C241.03,427.24,240.57,430.66,240.1,434.08z"/>
	<path class="st23" d="M485.12,436.48c-25.08-0.1-50.16-0.2-75.23-0.3c-0.61-3.46-1.21-6.91-1.82-10.37
		c26.15,0.13,52.3,0.26,78.45,0.4C486.05,429.64,485.59,433.06,485.12,436.48z"/>
	
		<rect x="199.68" y="264.35" transform="matrix(-1.836970e-16 1 -1 -1.836970e-16 502.2029 28.3791)" class="st23" width="74.46" height="1.88"/>
	
		<rect x="131.57" y="264.76" transform="matrix(-1.836970e-16 1 -1 -1.836970e-16 431.9462 99.2292)" class="st23" width="69.58" height="1.66"/>
	
		<rect x="141.14" y="264.61" transform="matrix(-1.836970e-16 1 -1 -1.836970e-16 433.7255 97.1552)" class="st25" width="54.28" height="1.66"/>
	
		<rect x="162.69" y="264.67" transform="matrix(-1.836970e-16 1 -1 -1.836970e-16 455.2737 75.7265)" class="st25" width="54.16" height="1.66"/>
	
		<rect x="168.29" y="238.3" transform="matrix(-1 -1.224647e-16 1.224647e-16 -1 358.8907 478.2613)" class="st25" width="22.32" height="1.66"/>
	
		<rect x="168.29" y="290.92" transform="matrix(-1 -1.224647e-16 1.224647e-16 -1 358.8907 583.5002)" class="st25" width="22.32" height="1.66"/>
	
		<rect x="165.96" y="264.73" transform="matrix(-1.836970e-16 1 -1 -1.836970e-16 458.6614 72.4584)" class="st25" width="54.28" height="1.66"/>
	
		<rect x="185.27" y="264.79" transform="matrix(-1.836970e-16 1 -1 -1.836970e-16 477.9713 53.268)" class="st22" width="54.16" height="1.66"/>
	
		<rect x="192.01" y="238.3" transform="matrix(-1 -1.224647e-16 1.224647e-16 -1 405.1904 478.2613)" class="st25" width="21.18" height="1.66"/>
	
		<rect x="193.1" y="291.04" transform="matrix(-1 -1.224647e-16 1.224647e-16 -1 406.2851 583.7392)" class="st25" width="20.08" height="1.66"/>
	
		<rect x="215.42" y="238.24" transform="matrix(-1 -1.224647e-16 1.224647e-16 -1 451.387 478.1418)" class="st25" width="20.55" height="1.66"/>
	
		<rect x="216.07" y="291.34" transform="matrix(-1 -1.224647e-16 1.224647e-16 -1 452.0399 584.3341)" class="st25" width="19.9" height="1.66"/>
	
		<rect x="208.1" y="264.74" transform="matrix(-1.836970e-16 1 -1 -1.836970e-16 500.712 30.4355)" class="st25" width="54.07" height="1.66"/>
	
		<rect x="180.73" y="263.59" transform="matrix(-1.836970e-16 1 -1 -1.836970e-16 479.6882 49.1612)" class="st23" width="69.07" height="1.66"/>
	
		<rect x="156.2" y="265.56" transform="matrix(-1.836970e-16 1 -1 -1.836970e-16 457.1262 75.6575)" class="st23" width="69.07" height="1.66"/>
	
		<rect x="191.79" y="265.08" transform="matrix(-1 -1.224647e-16 1.224647e-16 -1 405.9979 531.0002)" class="st23" width="22.42" height="0.83"/>
	
		<rect x="215.6" y="265.14" transform="matrix(-1 -1.224647e-16 1.224647e-16 -1 453.6173 531.1198)" class="st23" width="22.42" height="0.83"/>
	
		<rect x="166.97" y="265.08" transform="matrix(-1 -1.224647e-16 1.224647e-16 -1 356.9503 531.0002)" class="st23" width="23.01" height="0.83"/>
	
		<rect x="445.12" y="266.94" transform="matrix(-1.836970e-16 1 -1 -1.836970e-16 750.2294 -214.4753)" class="st23" width="74.46" height="1.88"/>
	
		<rect x="377.01" y="267.34" transform="matrix(-1.836970e-16 1 -1 -1.836970e-16 679.9728 -143.6253)" class="st23" width="69.58" height="1.66"/>
	
		<rect x="386.58" y="267.19" transform="matrix(-1.836970e-16 1 -1 -1.836970e-16 681.7521 -145.6992)" class="st25" width="54.28" height="1.66"/>
	
		<rect x="408.13" y="267.25" transform="matrix(-1.836970e-16 1 -1 -1.836970e-16 703.3004 -167.1279)" class="st25" width="54.16" height="1.66"/>
	
		<rect x="413.73" y="240.88" transform="matrix(-1 -1.224647e-16 1.224647e-16 -1 849.7718 483.4334)" class="st25" width="22.32" height="1.66"/>
	
		<rect x="413.73" y="293.5" transform="matrix(-1 -1.224647e-16 1.224647e-16 -1 849.7718 588.6724)" class="st25" width="22.32" height="1.66"/>
	
		<rect x="411.4" y="267.31" transform="matrix(-1.836970e-16 1 -1 -1.836970e-16 706.688 -170.3961)" class="st25" width="54.28" height="1.66"/>
	
		<rect x="430.71" y="267.37" transform="matrix(-1.836970e-16 1 -1 -1.836970e-16 725.9979 -189.5864)" class="st22" width="54.16" height="1.66"/>
	
		<rect x="437.45" y="240.88" transform="matrix(-1 -1.224647e-16 1.224647e-16 -1 896.0715 483.4334)" class="st25" width="21.18" height="1.66"/>
	
		<rect x="438.54" y="293.62" transform="matrix(-1 -1.224647e-16 1.224647e-16 -1 897.1661 588.9114)" class="st25" width="20.08" height="1.66"/>
	
		<rect x="460.86" y="240.82" transform="matrix(-1 -1.224647e-16 1.224647e-16 -1 942.2681 483.3139)" class="st25" width="20.55" height="1.66"/>
	
		<rect x="461.51" y="293.92" transform="matrix(-1 -1.224647e-16 1.224647e-16 -1 942.921 589.5062)" class="st25" width="19.9" height="1.66"/>
	
		<rect x="453.54" y="267.33" transform="matrix(-1.836970e-16 1 -1 -1.836970e-16 748.7386 -212.4189)" class="st25" width="54.07" height="1.66"/>
	
		<rect x="426.17" y="266.18" transform="matrix(-1.836970e-16 1 -1 -1.836970e-16 727.7148 -193.6932)" class="st23" width="69.07" height="1.66"/>
	
		<rect x="401.64" y="268.15" transform="matrix(-1.836970e-16 1 -1 -1.836970e-16 705.1528 -167.197)" class="st23" width="69.07" height="1.66"/>
	
		<rect x="437.23" y="267.67" transform="matrix(-1 -1.224647e-16 1.224647e-16 -1 896.8789 536.1724)" class="st23" width="22.42" height="0.83"/>
	
		<rect x="461.04" y="267.73" transform="matrix(-1 -1.224647e-16 1.224647e-16 -1 944.4984 536.2919)" class="st23" width="22.42" height="0.83"/>
	
		<rect x="412.41" y="267.67" transform="matrix(-1 -1.224647e-16 1.224647e-16 -1 847.8313 536.1724)" class="st23" width="23.01" height="0.83"/>
	
		<rect x="326.45" y="395.6" transform="matrix(-1.836970e-16 1 -1 -1.836970e-16 760.2192 32.8556)" class="st23" width="74.46" height="1.88"/>
	
		<rect x="258.34" y="396" transform="matrix(-1.836970e-16 1 -1 -1.836970e-16 689.9626 103.7056)" class="st23" width="69.58" height="1.66"/>
	
		<rect x="267.91" y="395.85" transform="matrix(-1.836970e-16 1 -1 -1.836970e-16 691.7419 101.6317)" class="st25" width="54.28" height="1.66"/>
	
		<rect x="289.46" y="395.91" transform="matrix(-1.836970e-16 1 -1 -1.836970e-16 713.2902 80.203)" class="st25" width="54.16" height="1.66"/>
	
		<rect x="295.06" y="369.55" transform="matrix(-1 -1.224647e-16 1.224647e-16 -1 612.4307 740.7542)" class="st25" width="22.32" height="1.66"/>
	
		<rect x="295.06" y="422.16" transform="matrix(-1 -1.224647e-16 1.224647e-16 -1 612.4307 845.993)" class="st25" width="22.32" height="1.66"/>
	
		<rect x="292.73" y="395.97" transform="matrix(-1.836970e-16 1 -1 -1.836970e-16 716.6778 76.9348)" class="st25" width="54.28" height="1.66"/>
	
		<rect x="312.04" y="396.03" transform="matrix(-1.836970e-16 1 -1 -1.836970e-16 735.9876 57.7445)" class="st22" width="54.16" height="1.66"/>
	
		<rect x="318.78" y="369.55" transform="matrix(-1 -1.224647e-16 1.224647e-16 -1 658.7303 740.7542)" class="st25" width="21.18" height="1.66"/>
	
		<rect x="319.87" y="422.28" transform="matrix(-1 -1.224647e-16 1.224647e-16 -1 659.825 846.2321)" class="st25" width="20.08" height="1.66"/>
	
		<rect x="342.19" y="369.49" transform="matrix(-1 -1.224647e-16 1.224647e-16 -1 704.9269 740.6346)" class="st25" width="20.55" height="1.66"/>
	
		<rect x="342.84" y="422.58" transform="matrix(-1 -1.224647e-16 1.224647e-16 -1 705.5799 846.8269)" class="st25" width="19.9" height="1.66"/>
	
		<rect x="334.87" y="395.99" transform="matrix(-1.836970e-16 1 -1 -1.836970e-16 758.7285 34.912)" class="st25" width="54.07" height="1.66"/>
	
		<rect x="307.5" y="394.84" transform="matrix(-1.836970e-16 1 -1 -1.836970e-16 737.7047 53.6377)" class="st23" width="69.07" height="1.66"/>
	
		<rect x="282.97" y="396.81" transform="matrix(-1.836970e-16 1 -1 -1.836970e-16 715.1426 80.1339)" class="st23" width="69.07" height="1.66"/>
	
		<rect x="318.56" y="396.33" transform="matrix(-1 -1.224647e-16 1.224647e-16 -1 659.5378 793.4931)" class="st23" width="22.42" height="0.83"/>
	<path class="st23" d="M342.37,396.39c6.88-0.46,13.77-0.93,20.65-1.39c0.11,0.26,0.22,0.52,0.34,0.77
		c-7,0.48-13.99,0.97-20.99,1.45V396.39z"/>
	<path class="st23" d="M293.74,394.75c7.67,0.53,15.34,1.06,23.01,1.58v0.83c-7.68-0.49-15.35-0.97-23.03-1.46
		C293.73,395.38,293.73,395.07,293.74,394.75z"/>
	
		<rect x="446" y="397.62" transform="matrix(-1.836970e-16 1 -1 -1.836970e-16 881.7827 -84.6669)" class="st23" width="74.46" height="1.88"/>
	
		<rect x="377.88" y="398.02" transform="matrix(-1.836970e-16 1 -1 -1.836970e-16 811.526 -13.8168)" class="st23" width="69.58" height="1.66"/>
	
		<rect x="387.46" y="397.88" transform="matrix(-1.836970e-16 1 -1 -1.836970e-16 813.3053 -15.8908)" class="st25" width="54.28" height="1.66"/>
	
		<rect x="409" y="397.94" transform="matrix(-1.836970e-16 1 -1 -1.836970e-16 834.8535 -37.3195)" class="st25" width="54.16" height="1.66"/>
	
		<rect x="414.6" y="371.57" transform="matrix(-1 -1.224647e-16 1.224647e-16 -1 851.5165 744.7951)" class="st25" width="22.32" height="1.66"/>
	
		<rect x="414.6" y="424.19" transform="matrix(-1 -1.224647e-16 1.224647e-16 -1 851.5165 850.034)" class="st25" width="22.32" height="1.66"/>
	
		<rect x="412.27" y="397.99" transform="matrix(-1.836970e-16 1 -1 -1.836970e-16 838.2411 -40.5876)" class="st25" width="54.28" height="1.66"/>
	
		<rect x="431.58" y="398.05" transform="matrix(-1.836970e-16 1 -1 -1.836970e-16 857.551 -59.778)" class="st22" width="54.16" height="1.66"/>
	
		<rect x="438.32" y="371.57" transform="matrix(-1 -1.224647e-16 1.224647e-16 -1 897.8162 744.7951)" class="st25" width="21.18" height="1.66"/>
	
		<rect x="439.41" y="424.3" transform="matrix(-1 -1.224647e-16 1.224647e-16 -1 898.9108 850.273)" class="st25" width="20.08" height="1.66"/>
	
		<rect x="461.73" y="371.51" transform="matrix(-1 -1.224647e-16 1.224647e-16 -1 944.0128 744.6756)" class="st25" width="20.55" height="1.66"/>
	
		<rect x="462.38" y="424.6" transform="matrix(-1 -1.224647e-16 1.224647e-16 -1 944.6657 850.8679)" class="st25" width="19.9" height="1.66"/>
	
		<rect x="454.42" y="398.01" transform="matrix(-1.836970e-16 1 -1 -1.836970e-16 880.2918 -82.6105)" class="st25" width="54.07" height="1.66"/>
	
		<rect x="427.04" y="396.86" transform="matrix(-1.836970e-16 1 -1 -1.836970e-16 859.268 -63.8848)" class="st23" width="69.07" height="1.66"/>
	
		<rect x="402.51" y="398.83" transform="matrix(-1.836970e-16 1 -1 -1.836970e-16 836.706 -37.3885)" class="st23" width="69.07" height="1.66"/>
	
		<rect x="438.1" y="398.35" transform="matrix(-1 -1.224647e-16 1.224647e-16 -1 898.6237 797.5341)" class="st23" width="22.42" height="0.83"/>
	
		<rect x="461.91" y="398.41" transform="matrix(-1 -1.224647e-16 1.224647e-16 -1 946.2431 797.6536)" class="st23" width="22.42" height="0.83"/>
	
		<rect x="413.28" y="398.35" transform="matrix(-1 -1.224647e-16 1.224647e-16 -1 849.576 797.5341)" class="st23" width="23.01" height="0.83"/>
	
		<rect x="199.48" y="395.8" transform="matrix(-1.836970e-16 1 -1 -1.836970e-16 633.4586 160.0345)" class="st23" width="74.46" height="1.88"/>
	
		<rect x="131.37" y="396.21" transform="matrix(-1.836970e-16 1 -1 -1.836970e-16 563.2019 230.8846)" class="st23" width="69.58" height="1.66"/>
	
		<rect x="140.94" y="396.06" transform="matrix(-1.836970e-16 1 -1 -1.836970e-16 564.9812 228.8106)" class="st25" width="54.28" height="1.66"/>
	
		<rect x="162.49" y="396.12" transform="matrix(-1.836970e-16 1 -1 -1.836970e-16 586.5295 207.3819)" class="st25" width="54.16" height="1.66"/>
	
		<rect x="168.09" y="369.75" transform="matrix(-1 -1.224647e-16 1.224647e-16 -1 358.491 741.1724)" class="st25" width="22.32" height="1.66"/>
	
		<rect x="168.09" y="422.37" transform="matrix(-1 -1.224647e-16 1.224647e-16 -1 358.491 846.4113)" class="st25" width="22.32" height="1.66"/>
	
		<rect x="165.76" y="396.18" transform="matrix(-1.836970e-16 1 -1 -1.836970e-16 589.9171 204.1138)" class="st25" width="54.28" height="1.66"/>
	
		<rect x="185.07" y="396.24" transform="matrix(-1.836970e-16 1 -1 -1.836970e-16 609.2269 184.9234)" class="st22" width="54.16" height="1.66"/>
	
		<rect x="191.81" y="369.75" transform="matrix(-1 -1.224647e-16 1.224647e-16 -1 404.7907 741.1724)" class="st25" width="21.18" height="1.66"/>
	
		<rect x="192.9" y="422.49" transform="matrix(-1 -1.224647e-16 1.224647e-16 -1 405.8854 846.6503)" class="st25" width="20.08" height="1.66"/>
	
		<rect x="215.22" y="369.69" transform="matrix(-1 -1.224647e-16 1.224647e-16 -1 450.9873 741.0529)" class="st25" width="20.55" height="1.66"/>
	
		<rect x="215.87" y="422.79" transform="matrix(-1 -1.224647e-16 1.224647e-16 -1 451.6402 847.2452)" class="st25" width="19.9" height="1.66"/>
	
		<rect x="207.9" y="396.2" transform="matrix(-1.836970e-16 1 -1 -1.836970e-16 631.9678 162.0909)" class="st25" width="54.07" height="1.66"/>
	
		<rect x="180.53" y="395.05" transform="matrix(-1.836970e-16 1 -1 -1.836970e-16 610.944 180.8167)" class="st23" width="69.07" height="1.66"/>
	
		<rect x="156" y="397.02" transform="matrix(-1.836970e-16 1 -1 -1.836970e-16 588.3819 207.3129)" class="st23" width="69.07" height="1.66"/>
	
		<rect x="191.59" y="396.54" transform="matrix(-1 -1.224647e-16 1.224647e-16 -1 405.5981 793.9114)" class="st23" width="22.42" height="0.83"/>
	
		<rect x="215.4" y="396.6" transform="matrix(-1 -1.224647e-16 1.224647e-16 -1 453.2176 794.0309)" class="st23" width="22.42" height="0.83"/>
	
		<rect x="166.77" y="396.54" transform="matrix(-1 -1.224647e-16 1.224647e-16 -1 356.5505 793.9114)" class="st23" width="23.01" height="0.83"/>
	<path class="st23" d="M285.88,396.36"/>
	<path class="st23" d="M367.84,397.69"/>
	<path class="st23" d="M289.37,393.14"/>
	<path class="st23" d="M366.97,398.07"/>
	<rect x="277" y="452.93" class="st11" width="170.05" height="9.77"/>
	<path class="st26" d="M277,462.71H242.2c4.59-1.06,9.18-2.12,13.77-3.18c7.01,0,14.02,0.01,21.03,0.01
		C277,460.59,277,461.65,277,462.71z"/>
	<rect x="311.79" y="452.93" class="st26" width="34.79" height="9.77"/>
	<rect x="381.09" y="452.93" class="st26" width="34.79" height="9.77"/>
	<path class="st26" d="M481.95,462.71h-34.79v-3.18c6.5,0,13,0,19.5,0C471.76,460.59,476.85,461.65,481.95,462.71z"/>
	<path class="st27" d="M511.81,462.71c-10.12,0-20.24,0-30.36,0c-4.93-1.06-9.86-2.12-14.79-3.18c8.38,0,16.76,0,25.14,0
		C498.47,460.59,505.14,461.65,511.81,462.71z"/>
	<path class="st27" d="M516.14,452.54"/>
	<path class="st27" d="M214.31,462.71c9.34,0,18.67,0,28.01,0c4.55-1.06,9.1-2.12,13.65-3.18c-7.73,0-15.46,0-23.19,0
		C226.62,460.59,220.47,461.65,214.31,462.71z"/>
</g>
<g id="Layer_3">
	<rect x="136.57" y="516.45" class="st28" width="26.16" height="40.83"/>
	<rect x="178.32" y="516.45" class="st28" width="25.66" height="40.83"/>
</g>
<g id="Layer_5">
	<path class="st29" d="M421.36,596.72h-69.58c-2.84,0-5.14-2.3-5.14-5.14v-29.15c0-2.84,2.3-5.14,5.14-5.14h69.58
		c2.84,0,5.14,2.3,5.14,5.14v29.15C426.5,594.42,424.2,596.72,421.36,596.72z"/>
	<text transform="matrix(0.7073 0 0 1 349.8522 580.5068)" class="st30 st31 st32">FOR LEASE</text>
	<text transform="matrix(1 0 0 1 353.2802 590.1378)"><tspan x="0" y="0" class="st30 st33 st34"> Call (415) 345-3079</tspan><tspan x="49.05" y="0" class="st30 st31 st35"> </tspan></text>
	<circle class="st36" cx="349.83" cy="560.77" r="0.89"/>
	<circle class="st36" cx="350.18" cy="591.49" r="0.89"/>
	<circle class="st36" cx="422.35" cy="592.38" r="0.89"/>
	<circle class="st36" cx="422.35" cy="560.77" r="0.89"/>
	<text transform="matrix(1.2784 0 0 1 349.3798 561.0906)"><tspan x="0" y="0" class="st37 st33 st38">x</tspan><tspan x="0.64" y="0" class="st30 st31 st39"> </tspan></text>
	<text transform="matrix(1.2784 0 0 1 421.8897 561.0906)"><tspan x="0" y="0" class="st37 st33 st38">x</tspan><tspan x="0.64" y="0" class="st30 st31 st39"> </tspan></text>
	<text transform="matrix(1.2784 0 0 1 421.8895 592.7321)"><tspan x="0" y="0" class="st37 st33 st38">x</tspan><tspan x="0.64" y="0" class="st30 st31 st39"> </tspan></text>
	<text transform="matrix(1.2784 0 0 1 349.6851 591.8342)"><tspan x="0" y="0" class="st37 st33 st38">x</tspan><tspan x="0.64" y="0" class="st30 st31 st39"> </tspan></text>
</g>
</svg>
