<?xml version="1.0" encoding="utf-8"?>
<!-- Generator: Adobe Illustrator 27.2.0, SVG Export Plug-In . SVG Version: 6.00 Build 0)  -->
<svg version="1.1" xmlns="http://www.w3.org/2000/svg" xmlns:xlink="http://www.w3.org/1999/xlink" x="0px" y="0px"
	 viewBox="0 0 612 792" style="enable-background:new 0 0 612 792;" xml:space="preserve">
<style type="text/css">
	.st0{fill:#D1D1D2;}
	.st1{fill:none;stroke:#949598;stroke-miterlimit:10;}
	.st2{fill:#3475B1;}
	.st3{fill:#2B7EBF;}
	.st4{fill:#001E3C;stroke:#26225E;stroke-miterlimit:10;}
	.st5{fill:#000B2B;stroke:#A7A9AB;stroke-width:3;stroke-miterlimit:10;}
	.st6{fill:#000B2B;stroke:#A7A9AB;stroke-width:10;stroke-miterlimit:10;}
	.st7{fill:#000B2B;stroke:#A7A9AB;stroke-width:8;stroke-miterlimit:10;}
	.st8{fill:#E6E7E8;}
	.st9{stroke:#A7A9AB;stroke-width:4;stroke-miterlimit:10;}
	.st10{fill:none;stroke:#A7A9AB;stroke-width:4;stroke-miterlimit:10;}
	.st11{fill:#A7A9AB;stroke:#A7A9AB;stroke-width:4;stroke-miterlimit:10;}
	.st12{stroke:#000000;stroke-width:4;stroke-miterlimit:10;}
	.st13{fill:#555D4E;stroke:#949598;stroke-width:2;stroke-miterlimit:10;}
	.st14{fill:#555D4E;stroke:#818284;stroke-width:2;stroke-miterlimit:10;}
	.st15{fill:#BCBEC0;}
	.st16{fill:#414042;}
	.st17{fill:none;stroke:#949598;stroke-width:2;stroke-miterlimit:10;}
	.st18{fill:#FFF8AC;}
	.st19{fill:#120A41;}
	.st20{font-family:'Arial-Black';}
	.st21{font-size:10.8338px;}
	.st22{font-family:'MyriadPro-Regular';}
	.st23{font-size:8.4287px;}
	.st24{font-size:11.2383px;}
</style>
<g id="Layer_1">
	<rect x="139.1" y="118.1" class="st0" width="333.79" height="446.64"/>
	<line class="st1" x1="472.9" y1="259.9" x2="138.69" y2="259.9"/>
	<line class="st1" x1="432.21" y1="450.58" x2="432.21" y2="167.53"/>
	<rect x="139.1" y="404.18" class="st2" width="333.79" height="160.56"/>
	<rect x="211.7" y="404.18" class="st3" width="17.99" height="160.56"/>
	<rect x="374.1" y="404.18" class="st3" width="17.99" height="160.56"/>
	<line class="st4" x1="139.1" y1="555.82" x2="472.9" y2="555.78"/>
	<line class="st4" x1="139.1" y1="546.76" x2="472.9" y2="546.71"/>
	<line class="st4" x1="139.1" y1="537.69" x2="472.9" y2="537.64"/>
	<line class="st4" x1="139.1" y1="528.62" x2="472.89" y2="528.57"/>
	<line class="st4" x1="139.1" y1="519.55" x2="472.89" y2="519.5"/>
	<line class="st4" x1="139.1" y1="510.78" x2="472.9" y2="510.74"/>
	<line class="st4" x1="139.1" y1="502.02" x2="472.9" y2="501.98"/>
	<line class="st4" x1="139.11" y1="492.54" x2="472.9" y2="492.49"/>
	<line class="st4" x1="139.11" y1="483.47" x2="472.9" y2="483.42"/>
	<line class="st4" x1="139.11" y1="474.4" x2="472.9" y2="474.35"/>
	<line class="st4" x1="139.1" y1="465.33" x2="472.9" y2="465.29"/>
	<line class="st4" x1="139.1" y1="456.26" x2="472.89" y2="456.22"/>
	<line class="st4" x1="139.11" y1="447.5" x2="472.9" y2="447.45"/>
	<line class="st4" x1="139.11" y1="438.73" x2="472.9" y2="438.69"/>
	<line class="st4" x1="139.11" y1="429.97" x2="472.9" y2="429.93"/>
	<line class="st4" x1="139.11" y1="420.9" x2="472.9" y2="420.86"/>
	<line class="st4" x1="139.11" y1="411.83" x2="472.9" y2="411.79"/>
	<line class="st1" x1="473.1" y1="184.41" x2="138.9" y2="184.41"/>
	<line class="st1" x1="473.1" y1="307.17" x2="138.9" y2="307.17"/>
	<line class="st1" x1="273.72" y1="404.18" x2="273.72" y2="121.12"/>
	<line class="st1" x1="344.61" y1="404.18" x2="344.61" y2="121.12"/>
	<line class="st1" x1="185.89" y1="401.42" x2="185.89" y2="118.37"/>
</g>
<g id="Layer_2">
	<rect x="234.97" y="438.75" class="st5" width="132.59" height="91.42"/>
	<rect x="407.97" y="471.95" class="st6" width="50.48" height="87.79"/>
	<rect x="407.09" y="440.35" class="st7" width="52.23" height="29.99"/>
	<path class="st8" d="M376.07,449.89H226.69c2.4-6.65,4.8-13.29,7.19-19.94c44.52,0,89.04,0,133.56,0
		C370.31,436.6,373.19,443.24,376.07,449.89z"/>
	<rect x="151.46" y="474.93" class="st9" width="48.41" height="87.79"/>
	<line class="st10" x1="152.78" y1="496.38" x2="198.45" y2="496.38"/>
	<rect x="151.46" y="524.42" class="st11" width="45.61" height="10.24"/>
	<rect x="172.66" y="526.98" class="st12" width="20.49" height="5.12"/>
	<rect x="238.65" y="308.01" class="st13" width="132.59" height="79.12"/>
	<rect x="151.46" y="308.01" class="st13" width="60.24" height="79.12"/>
	<rect x="398.2" y="308.01" class="st14" width="60.24" height="79.12"/>
	<rect x="184.89" y="118.1" class="st15" width="89.6" height="142.79"/>
	<rect x="343.61" y="119.65" class="st15" width="89.6" height="141.25"/>
	<rect x="190.57" y="179.63" class="st16" width="77.42" height="62.01"/>
	<rect x="190.98" y="141.61" class="st16" width="77.42" height="31.96"/>
	<rect x="349.49" y="179.63" class="st16" width="77.42" height="62.01"/>
	<rect x="349.9" y="141.61" class="st16" width="77.42" height="31.96"/>
	<rect x="282.08" y="179.63" class="st16" width="53.93" height="46.98"/>
	<line class="st17" x1="191.47" y1="179.63" x2="191.47" y2="241.64"/>
	<line class="st17" x1="268" y1="180.56" x2="191.47" y2="180.56"/>
	<line class="st17" x1="191.95" y1="140.62" x2="191.95" y2="173.57"/>
	<line class="st17" x1="268.4" y1="141.6" x2="192.01" y2="141.6"/>
	<line class="st17" x1="282.8" y1="179.63" x2="282.8" y2="226.61"/>
	<line class="st17" x1="336.01" y1="180.33" x2="282.8" y2="180.33"/>
	<line class="st17" x1="350.35" y1="179.63" x2="350.35" y2="241.64"/>
	<line class="st17" x1="426.87" y1="180.56" x2="350.35" y2="180.56"/>
	<line class="st17" x1="350.87" y1="141.61" x2="350.87" y2="174.56"/>
	<line class="st17" x1="427.32" y1="142.59" x2="350.93" y2="142.59"/>
	<line class="st17" x1="304.26" y1="309.05" x2="304.26" y2="387.13"/>
	<rect x="317.44" y="459.52" class="st18" width="39.35" height="56.72"/>
	<text transform="matrix(0.6413 0 0 1 320.8061 471.9491)"><tspan x="0" y="0" class="st19 st20 st21">FOR </tspan><tspan x="0" y="13" class="st19 st20 st21">LEASE</tspan></text>
	<text transform="matrix(0.6589 0 0 1 319.8835 511.4751)"><tspan x="0" y="0" class="st19 st22 st23">(415) 345-3179</tspan><tspan x="52.4" y="0" class="st19 st20 st24"> </tspan></text>
</g>
</svg>
