<?xml version="1.0" encoding="utf-8"?>
<!-- Generator: Adobe Illustrator 27.2.0, SVG Export Plug-In . SVG Version: 6.00 Build 0)  -->
<svg version="1.1" id="Layer_1" xmlns="http://www.w3.org/2000/svg" xmlns:xlink="http://www.w3.org/1999/xlink" x="0px" y="0px"
	 viewBox="0 0 612 792" style="enable-background:new 0 0 612 792;" xml:space="preserve">
<style type="text/css">
	.st0{fill:#452B32;}
	.st1{fill:#9BA0AC;stroke:#D1D3D4;stroke-width:3;stroke-miterlimit:10;}
	.st2{fill:#29376F;}
	.st3{fill:#9BA0AC;}
	.st4{fill:#B88882;}
	.st5{fill:#9BA0AC;stroke:#000000;stroke-miterlimit:10;}
	.st6{fill:#414042;stroke:#414042;stroke-miterlimit:10;}
	.st7{fill:#DA3832;stroke:#414042;stroke-miterlimit:10;}
	.st8{fill:#FFFFFF;}
	.st9{font-family:'DINAlternate-Bold';}
	.st10{font-size:15.9547px;}
	.st11{font-size:21px;}
</style>
<rect x="133.83" y="184.73" class="st0" width="362.33" height="456.55"/>
<rect x="170.21" y="427.94" class="st1" width="66.5" height="48.9"/>
<rect x="248.23" y="427.94" class="st1" width="66.5" height="48.9"/>
<rect x="330.22" y="427.94" class="st1" width="66.5" height="48.9"/>
<rect x="409.3" y="427.94" class="st1" width="66.5" height="48.9"/>
<rect x="133.83" y="452.39" class="st2" width="362.33" height="188.88"/>
<path class="st3" d="M508.06,411.01c-128.88,0.56-257.77,1.13-386.65,1.69c4.14-36.76,8.29-73.51,12.43-110.27h362.33
	C500.13,338.63,504.09,374.82,508.06,411.01z"/>
<rect x="133.83" y="288.53" class="st4" width="362.33" height="3.59"/>
<path class="st3" d="M531.2,427.94"/>
<rect x="163.32" y="535.71" class="st5" width="65.14" height="105.56"/>
<circle class="st6" cx="170.21" cy="592.49" r="2.51"/>
<rect x="171.85" y="591.69" class="st6" width="6.58" height="1.35"/>
<line class="st6" x1="275.13" y1="452.39" x2="275.58" y2="641.27"/>
<line class="st6" x1="382.96" y1="452.39" x2="383.41" y2="641.27"/>
<rect x="287.19" y="555.3" class="st7" width="83.44" height="36.39"/>
<text transform="matrix(0.6761 0 0 1 295.3355 587.1953)" class="st8 st9 st10">TRESPASSING</text>
<text transform="matrix(1.0751 0 0 1 313.596 572.7444)" class="st8 st9 st11">NO</text>
</svg>
