<?xml version="1.0" encoding="utf-8"?>
<!-- Generator: Adobe Illustrator 27.2.0, SVG Export Plug-In . SVG Version: 6.00 Build 0)  -->
<svg version="1.1" id="Layer_1" xmlns="http://www.w3.org/2000/svg" xmlns:xlink="http://www.w3.org/1999/xlink" x="0px" y="0px"
	 viewBox="0 0 612 792" style="enable-background:new 0 0 612 792;" xml:space="preserve">
<style type="text/css">
	.st0{fill:#383839;}
	.st1{fill:#F6E9B5;}
	.st2{fill:#6BA5D8;}
	.st3{fill:#6B4163;}
	.st4{fill:#9B5C91;}
	.st5{fill:#A0402F;}
	.st6{fill:#A27D56;}
	.st7{fill:#0D131C;}
	.st8{fill:#1C274E;}
	.st9{fill:#FFFFFF;}
	.st10{font-family:'Arial-Black';}
	.st11{font-size:16.595px;}
	.st12{fill:#120A41;}
	.st13{font-family:'MyriadPro-Regular';}
	.st14{font-size:6px;}
	.st15{font-size:8px;}
	.st16{fill:#488FBC;}
	.st17{fill:#886947;}
	.st18{fill:#283D77;}
	.st19{fill:#FFF2BB;}
	.st20{fill:#C69FBF;}
	.st21{fill:#4869AE;}
	.st22{fill:#4472B5;}
	.st23{fill:#637BA0;}
</style>
<path class="st0" d="M400.07,483.79"/>
<rect x="139.1" y="160.36" class="st1" width="333.79" height="446.64"/>
<rect x="139.1" y="461.36" class="st2" width="333.79" height="145.65"/>
<rect x="182.71" y="505.02" class="st3" width="49.27" height="101.98"/>
<rect x="247.83" y="488.76" class="st4" width="147.88" height="118.24"/>
<rect x="247.83" y="466.29" class="st5" width="225.07" height="22.47"/>
<rect x="405.3" y="488.76" class="st6" width="59.27" height="118.24"/>
<g>
	<rect x="255.89" y="494.22" class="st7" width="13.96" height="58.69"/>
	<rect x="255.89" y="556.52" class="st7" width="13.96" height="38.43"/>
	<rect x="271.24" y="494.22" class="st7" width="13.96" height="58.69"/>
	<rect x="271.24" y="556.52" class="st7" width="13.96" height="38.43"/>
	<rect x="290.24" y="494.22" class="st7" width="13.96" height="58.69"/>
	<rect x="290.24" y="556.52" class="st7" width="13.96" height="38.43"/>
	<rect x="305.59" y="494.22" class="st7" width="13.96" height="58.69"/>
	<rect x="305.59" y="556.52" class="st7" width="13.96" height="38.43"/>
	<rect x="324.26" y="494.22" class="st7" width="13.96" height="58.69"/>
	<rect x="324.26" y="556.52" class="st7" width="13.96" height="38.43"/>
	<rect x="339.61" y="494.22" class="st7" width="13.96" height="58.69"/>
	<rect x="339.61" y="556.52" class="st7" width="13.96" height="38.43"/>
	<rect x="358.97" y="494.22" class="st7" width="13.96" height="58.69"/>
	<rect x="358.97" y="556.52" class="st7" width="13.96" height="38.43"/>
	<rect x="374.32" y="494.22" class="st7" width="13.96" height="58.69"/>
	<rect x="374.32" y="556.52" class="st7" width="13.96" height="38.43"/>
</g>
<rect x="191.16" y="511.47" class="st7" width="35.6" height="79.49"/>
<rect x="202.1" y="508.55" class="st3" width="1.73" height="82.99"/>
<rect x="214.17" y="508.55" class="st3" width="1.73" height="82.99"/>
<rect x="207.78" y="509.15" transform="matrix(-1.836970e-16 1 -1 -1.836970e-16 735.9125 318.6196)" class="st3" width="1.73" height="36.23"/>
<rect x="208.1" y="525.94" transform="matrix(-1.836970e-16 1 -1 -1.836970e-16 753.0169 335.097)" class="st3" width="1.73" height="36.23"/>
<rect x="207.78" y="542.17" transform="matrix(-1.836970e-16 1 -1 -1.836970e-16 768.9369 351.6439)" class="st3" width="1.73" height="36.23"/>
<rect x="208.45" y="558.16" transform="matrix(-1.836970e-16 1 -1 -1.836970e-16 785.5925 366.9565)" class="st3" width="1.73" height="36.23"/>
<rect x="287.59" y="497.71" class="st8" width="91.16" height="51.69"/>
<rect x="287.59" y="497.71" class="st9" width="91.16" height="7.31"/>
<rect x="287.59" y="535.88" class="st9" width="91.16" height="7.31"/>
<text transform="matrix(0.7073 0 0 1 293.0272 523.4015)" class="st9 st10 st11">AVAILABLE</text>
<text transform="matrix(1 0 0 1 293.0391 541.5832)"><tspan x="0" y="0" class="st12 st13 st14">RESTAURANT FOR SALE</tspan><tspan x="58.75" y="0" class="st12 st10 st15"> </tspan></text>
<path class="st16" d="M231.99,503.78h-49.27v-10.81c4.43-2.16,13.16-5.71,24.69-5.7c11.47,0.01,20.17,3.54,24.59,5.7
	C231.99,496.57,231.99,500.17,231.99,503.78z"/>
<path class="st16" d="M236,505.02h-59.14v-10.81c10.42,0,20.83,0,31.25,0c9.3,0,18.59,0,27.89,0C236,497.82,236,501.42,236,505.02z"
	/>
<path class="st16" d="M180.01,607.21V504.82h5.4c0,18.04,0,36.07,0,54.11c0,16.09,0,32.19,0,48.28
	C183.61,607.21,181.81,607.21,180.01,607.21z"/>
<path class="st16" d="M237.73,503.75c-0.58,0.42-1.16,0.85-1.74,1.27v-10.81c0.63-0.22,1.27-0.44,1.9-0.66
	C237.84,496.95,237.79,500.35,237.73,503.75z"/>
<rect x="405.3" y="488.76" class="st17" width="8.25" height="118.24"/>
<rect x="139.1" y="455.89" class="st18" width="333.79" height="5.47"/>
<rect x="144.23" y="132.56" class="st19" width="117.48" height="322.9"/>
<rect x="322.56" y="132.56" class="st19" width="117.48" height="323.33"/>
<rect x="173.12" y="333.71" class="st20" width="57.96" height="90.83"/>
<rect x="386.28" y="333.71" class="st20" width="39.92" height="90.83"/>
<rect x="338.01" y="333.71" class="st20" width="39.92" height="90.83"/>
<rect x="386.48" y="201.52" class="st20" width="39.92" height="90.83"/>
<rect x="338.21" y="201.52" class="st20" width="39.92" height="90.83"/>
<rect x="206.28" y="201.52" class="st20" width="39.92" height="90.83"/>
<rect x="158.01" y="201.52" class="st20" width="39.92" height="90.83"/>
<rect x="139.1" y="292.35" class="st18" width="122.61" height="2.73"/>
<rect x="139.1" y="295.08" class="st21" width="122.61" height="2.73"/>
<rect x="321.77" y="292.35" class="st18" width="118.28" height="2.73"/>
<rect x="321.77" y="295.08" class="st21" width="118.28" height="2.73"/>
<rect x="262.63" y="317.35" class="st18" width="59.14" height="5.24"/>
<rect x="440.04" y="317.35" class="st18" width="32.85" height="5.24"/>
<path class="st22" d="M263.77,322.59H140c-1.12-2.03-2.24-4.05-3.35-6.08c43.51-0.1,87.02-0.19,130.53-0.29
	C266.04,318.35,264.9,320.47,263.77,322.59z"/>
<path class="st22" d="M440.23,322.45H321.95c-1.07-2.03-2.14-4.05-3.2-6.08c41.77-0.19,83.55-0.38,125.32-0.57
	C442.79,318.01,441.51,320.23,440.23,322.45z"/>
<rect x="177.96" y="337.66" class="st23" width="48.28" height="82.13"/>
<rect x="169.27" y="423.17" class="st21" width="65.28" height="2.73"/>
<rect x="341.81" y="338.52" class="st23" width="31.94" height="82.13"/>
<rect x="390.27" y="338.52" class="st23" width="31.94" height="82.13"/>
<rect x="342.2" y="205.87" class="st23" width="31.94" height="82.13"/>
<rect x="390.47" y="205.87" class="st23" width="31.94" height="82.13"/>
<rect x="210.27" y="205.87" class="st23" width="31.94" height="82.13"/>
<rect x="162" y="205.87" class="st23" width="31.94" height="82.13"/>
<rect x="173.12" y="376.4" class="st20" width="57.96" height="4.64"/>
<rect x="339.61" y="374.94" class="st20" width="35.04" height="4.64"/>
<rect x="389.36" y="374.94" class="st20" width="35.04" height="4.64"/>
<rect x="339.61" y="244.27" class="st20" width="35.04" height="4.64"/>
<rect x="387.79" y="244.27" class="st20" width="35.04" height="4.64"/>
<rect x="159.34" y="244.27" class="st20" width="35.04" height="4.64"/>
<rect x="321.29" y="427.57" class="st2" width="120.24" height="28.32"/>
<rect x="208.72" y="244.27" class="st20" width="35.04" height="4.64"/>
<rect x="319.62" y="424.51" class="st18" width="123.3" height="2.73"/>
<rect x="319.62" y="427.25" class="st21" width="123.3" height="2.73"/>
<rect x="262.06" y="158.52" class="st18" width="59.14" height="5.24"/>
<rect x="439.48" y="158.52" class="st18" width="32.85" height="5.24"/>
<path class="st22" d="M263.2,163.76H139.43c-1.12-2.03-2.24-4.05-3.35-6.08c43.51-0.1,87.02-0.19,130.53-0.29
	C265.47,159.52,264.34,161.64,263.2,163.76z"/>
<path class="st22" d="M439.66,163.61H321.39c-1.07-2.03-2.14-4.05-3.2-6.08c41.77-0.19,83.55-0.38,125.32-0.57
	C442.22,159.18,440.94,161.4,439.66,163.61z"/>
<rect x="139.7" y="129.94" class="st18" width="125.33" height="5.24"/>
<rect x="319.91" y="129.94" class="st18" width="122.57" height="5.24"/>
</svg>
